<!-- Generator: Adobe Illustrator 21.1.0, SVG Export Plug-In  -->
<svg version="1.1"
	 xmlns="http://www.w3.org/2000/svg" xmlns:xlink="http://www.w3.org/1999/xlink" xmlns:a="http://ns.adobe.com/AdobeSVGViewerExtensions/3.0/"
	 x="0px" y="0px" width="441.179px" height="32.556px" viewBox="0 0 441.179 32.556"
	 style="enable-background:new 0 0 441.179 32.556;" xml:space="preserve">
<style type="text/css">
	.st0{fill:#FFFFFF;}
</style>
<defs>
</defs>
<g>
	<path class="st0" d="M22.468,23.431c-0.274,5.777-3.301,9.125-9.17,9.125H9.217C3.026,32.556,0,28.841,0,23.018V9.538
		C0,3.714,3.026,0,9.217,0h4.081c5.869,0,8.896,3.347,9.17,9.079c0.046,0.596-0.274,0.917-0.871,0.917h-3.438
		c-0.551,0-0.871-0.321-0.917-0.917c-0.138-3.256-1.376-4.356-3.943-4.356H9.217c-2.797,0-3.989,1.284-3.989,4.815v13.48
		c0,3.577,1.192,4.814,3.989,4.814h4.081c2.567,0,3.806-1.055,3.943-4.402c0.046-0.55,0.366-0.871,0.917-0.871h3.438
		C22.193,22.56,22.514,22.88,22.468,23.431z"/>
	<path class="st0" d="M86.208,32.326H82.54c-0.505,0-0.871-0.229-1.055-0.688l-4.311-9.95h-0.366h-6.924v9.95
		c0,0.458-0.229,0.688-0.688,0.688h-3.852c-0.458,0-0.688-0.229-0.688-0.688V0.917c0-0.458,0.229-0.688,0.688-0.688h3.852h7.612
		c6.189,0,9.216,3.439,9.216,9.125v3.164c0,3.714-1.284,6.465-3.897,7.979l4.769,10.775C87.171,31.914,86.896,32.326,86.208,32.326z
		 M69.885,16.965h6.924c2.797,0,3.988-1.009,3.988-4.448V9.354c0-3.393-1.191-4.402-3.988-4.402h-6.924V16.965z"/>
	<path class="st0" d="M133.762,4.952v9.17h9.767c0.458,0,0.688,0.229,0.688,0.688v3.347c0,0.458-0.229,0.688-0.688,0.688h-9.767
		v8.758h13.021c0.459,0,0.688,0.229,0.688,0.688v3.347c0,0.458-0.229,0.688-0.688,0.688h-17.562c-0.458,0-0.688-0.229-0.688-0.688
		V0.917c0-0.458,0.229-0.688,0.688-0.688h17.333c0.458,0,0.688,0.229,0.688,0.688v3.347c0,0.458-0.229,0.688-0.688,0.688H133.762z"
		/>
	<path class="st0" d="M211.303,32.326h-3.714c-0.459,0-0.733-0.367-0.871-0.871l-1.422-4.952h-11.279l-1.422,4.952
		c-0.138,0.504-0.412,0.871-0.871,0.871h-3.714c-0.459,0-0.733-0.367-0.596-0.871L196.4,0.963c0.138-0.458,0.459-0.733,0.871-0.733
		h4.724c0.412,0,0.733,0.275,0.871,0.733l9.033,30.492C212.036,31.959,211.762,32.326,211.303,32.326z M204.013,22.009
		l-4.356-15.361L195.3,22.009H204.013z"/>
	<path class="st0" d="M268.716,0.917v3.347c0,0.458-0.229,0.688-0.688,0.688h-6.694v26.686c0,0.458-0.229,0.688-0.688,0.688h-3.852
		c-0.459,0-0.688-0.229-0.688-0.688V4.952h-6.786c-0.458,0-0.688-0.229-0.688-0.688V0.917c0-0.458,0.229-0.688,0.688-0.688h11.326
		h7.382C268.486,0.229,268.716,0.458,268.716,0.917z"/>
	<path class="st0" d="M310.903,0.229h3.943c0.459,0,0.688,0.229,0.688,0.688v30.721c0,0.458-0.229,0.688-0.688,0.688h-3.943
		c-0.458,0-0.688-0.229-0.688-0.688V0.917C310.216,0.458,310.445,0.229,310.903,0.229z"/>
	<path class="st0" d="M357.218,0.229h3.76c0.459,0,0.733,0.367,0.871,0.871l7.016,24.806l7.062-24.806
		c0.138-0.504,0.412-0.871,0.871-0.871h3.714c0.459,0,0.733,0.367,0.597,0.871l-9.033,30.492c-0.138,0.458-0.459,0.733-0.871,0.733
		h-4.724c-0.412,0-0.733-0.275-0.871-0.733l-8.941-30.492C356.53,0.596,356.759,0.229,357.218,0.229z"/>
	<path class="st0" d="M427.469,4.952v9.17h9.767c0.458,0,0.688,0.229,0.688,0.688v3.347c0,0.458-0.229,0.688-0.688,0.688h-9.767
		v8.758h13.021c0.459,0,0.688,0.229,0.688,0.688v3.347c0,0.458-0.229,0.688-0.688,0.688h-17.562c-0.458,0-0.688-0.229-0.688-0.688
		V0.917c0-0.458,0.229-0.688,0.688-0.688h17.333c0.458,0,0.688,0.229,0.688,0.688v3.347c0,0.458-0.229,0.688-0.688,0.688H427.469z"
		/>
</g>
</svg>