<!-- Generator: Adobe Illustrator 21.1.0, SVG Export Plug-In  -->
<svg version="1.1"
	 xmlns="http://www.w3.org/2000/svg" xmlns:xlink="http://www.w3.org/1999/xlink" xmlns:a="http://ns.adobe.com/AdobeSVGViewerExtensions/3.0/"
	 x="0px" y="0px" width="504.029px" height="504.029px" viewBox="0 0 504.029 504.029"
	 style="enable-background:new 0 0 504.029 504.029;" xml:space="preserve">
<style type="text/css">
	.st0{fill:#FFFFFF;}
</style>
<defs>
</defs>
<g>
	<path class="st0" d="M252.015,0C113.052,0,0,113.052,0,252.015s113.052,252.015,252.015,252.015s252.015-113.052,252.015-252.015
		S390.978,0,252.015,0z M126.853,100.265c-0.035-0.02-0.231-0.423-0.269-0.423c-0.02,0-0.033,0.035-0.051,0.05
		c-0.015-0.038-0.058-0.126-0.168-0.31c-0.504-0.846-0.082-1.773-0.76-2.42c0.281-0.206,0.597-0.587,0.919-1.024
		c-0.039,0.463-0.117,1.433-0.093,1.557c0.033,0.163,0.114,0.342,0.114,0.456c0,0.102,0.087,0.607,0.301,1.899
		C126.849,100.126,126.851,100.206,126.853,100.265z M129.785,94.309c-0.006-0.285-0.156-0.459-0.34-0.579
		c0.138-0.33,0.238-0.741,0.238-1.416c0-1.484-0.428-2.687-0.957-2.687c-0.414,0-0.408,0.064-0.814,0.551
		c-0.082-0.585-0.195-0.553-0.501-0.882c0.001-0.011,0.003-0.021,0.003-0.032c0.237-0.03,0.479-0.056,0.711-0.207
		c0.629-0.41,0.897-1.116,0.598-1.575c-0.248-0.381-0.808-0.399-1.35-0.187c-0.059-0.417-0.135-0.864-0.126-0.874
		c-0.009,0.01,0.142-0.84,0.142-1.623c0-1.108-0.195-2.007-0.437-2.007s-0.436,0.898-0.436,2.007c0,0.814,0.121,1.648,0.071,1.673
		c0-0.024-0.052,0.822-0.089,1.565c-0.17,0.327-0.231,0.664-0.057,0.932c0.012,0.019,0.045,0.013,0.058,0.03
		c0.009,0.166,0.025,0.306,0.041,0.456c-0.214,0.509-0.374,1.214-0.374,2.137c0,1.052,0.211,1.797,0.477,2.274
		c-0.298,0.303-0.585,0.682-0.919,1.142c-1.116,1.533-0.892,2.215-0.892,2.215c-0.029-0.014,0.011,0.239,0.199,0.913
		c0.253,0.914,0.716,1.318,1.099,2.741c-0.001,0.028-0.013,0.045-0.013,0.073c0,0.611,0.209,1.106,0.467,1.106
		c0.089,0,0.156-0.121,0.227-0.222c-0.043,0.167-0.094,0.326-0.094,0.535c0,0.611,0.209,1.106,0.467,1.106
		c0.218,0,0.373-0.385,0.424-0.863c0.044,0.123,0.084,0.381,0.076,0.973l0.006-0.017c-4.873,79.81,0.821,352.135-72.206,302.457
		c0,0,0.035,0.1,0.096,0.258C22.114,363.761,2.074,310.201,2.074,252.015c0-137.82,112.12-249.94,249.94-249.94
		s249.94,112.12,249.94,249.94c0,61.967-22.716,118.692-60.193,162.413C418.325,415.826,137.169,425.686,129.785,94.309z"/>
</g>
</svg>