<!-- Generator: Adobe Illustrator 21.1.0, SVG Export Plug-In  -->
<svg version="1.1"
	 xmlns="http://www.w3.org/2000/svg" xmlns:xlink="http://www.w3.org/1999/xlink" xmlns:a="http://ns.adobe.com/AdobeSVGViewerExtensions/3.0/"
	 x="0px" y="0px" width="566.404px" height="67.473px" viewBox="0 0 566.404 67.473"
	 style="enable-background:new 0 0 566.404 67.473;" xml:space="preserve">
<style type="text/css">
	.st0{fill:#FFFFFF;}
</style>
<defs>
</defs>
<g>
	<path class="st0" d="M118.958,48.181c-0.476,13.02-7.223,19.292-19.007,19.292h-6.558c-12.354,0-19.102-6.747-19.102-19.767V19.767
		C74.292,6.748,81.04,0,93.393,0h6.558c11.784,0,18.531,6.272,19.007,19.197c0.095,1.045-0.57,1.521-1.426,1.521h-3.326
		c-0.855,0-1.426-0.476-1.521-1.521C112.4,9.598,108.598,5.797,99.951,5.797h-6.558c-9.123,0-12.828,4.181-12.828,13.969v27.939
		c0,9.789,3.705,13.97,12.828,13.97h6.558c8.647,0,12.449-3.801,12.734-13.495c0.095-0.95,0.665-1.425,1.521-1.425h3.326
		C118.387,46.756,119.052,47.231,118.958,48.181z"/>
	<path class="st0" d="M184.145,19.767v27.939c0,13.02-6.747,19.767-19.102,19.767h-7.032c-12.354,0-19.102-6.747-19.102-19.767
		V19.767C138.91,6.748,145.657,0,158.011,0h7.032C177.398,0,184.145,6.748,184.145,19.767z M177.874,19.767
		c0-9.788-3.707-13.969-12.83-13.969h-7.032c-9.123,0-12.829,4.181-12.829,13.969v27.939c0,9.789,3.706,13.97,12.829,13.97h7.032
		c9.123,0,12.83-4.181,12.83-13.97V19.767z"/>
	<path class="st0" d="M248.479,1.901v63.671c0,0.95-0.476,1.425-1.426,1.425h-6.463c-0.76,0-1.33-0.285-1.71-1.045l-27.56-57.875
		v57.495c0,0.95-0.475,1.425-1.425,1.425h-3.421c-0.951,0-1.426-0.475-1.426-1.425V1.901c0-0.95,0.475-1.426,1.426-1.426h6.462
		c0.76,0,1.33,0.285,1.71,1.045l27.56,57.779V1.901c0-0.95,0.476-1.426,1.425-1.426h3.422
		C248.003,0.475,248.479,0.951,248.479,1.901z"/>
	<path class="st0" d="M308.821,1.901v2.946c0,0.951-0.476,1.426-1.426,1.426H291.62v59.3c0,0.95-0.476,1.425-1.426,1.425h-3.421
		c-0.95,0-1.426-0.475-1.426-1.425v-59.3h-15.966c-0.949,0-1.425-0.475-1.425-1.426V1.901c0-0.95,0.476-1.426,1.425-1.426h20.812
		h17.201C308.345,0.475,308.821,0.951,308.821,1.901z"/>
	<path class="st0" d="M371.539,66.998h-3.517c-0.949,0-1.33-0.475-1.71-1.521l-4.182-13.97h-26.419l-4.182,13.97
		c-0.285,1.045-0.76,1.521-1.71,1.521h-3.517c-0.95,0-1.426-0.475-1.141-1.521l19.672-63.481c0.285-0.95,0.951-1.521,1.806-1.521
		h4.467c0.854,0,1.521,0.57,1.806,1.521l19.767,63.481C373.059,66.522,372.489,66.998,371.539,66.998z M360.42,45.996l-11.5-37.918
		l-11.498,37.918H360.42z"/>
	<path class="st0" d="M435.112,48.181c-0.475,13.02-7.223,19.292-19.006,19.292h-6.558c-12.354,0-19.102-6.747-19.102-19.767V19.767
		C390.447,6.748,397.194,0,409.548,0h6.558c11.783,0,18.531,6.272,19.006,19.197c0.096,1.045-0.57,1.521-1.426,1.521h-3.326
		c-0.855,0-1.425-0.476-1.52-1.521c-0.285-9.599-4.087-13.399-12.734-13.399h-6.558c-9.123,0-12.829,4.181-12.829,13.969v27.939
		c0,9.789,3.706,13.97,12.829,13.97h6.558c8.647,0,12.449-3.801,12.734-13.495c0.095-0.95,0.664-1.425,1.52-1.425h3.326
		C434.542,46.756,435.208,47.231,435.112,48.181z"/>
	<path class="st0" d="M494.502,1.901v2.946c0,0.951-0.475,1.426-1.426,1.426h-15.774v59.3c0,0.95-0.476,1.425-1.426,1.425h-3.421
		c-0.95,0-1.426-0.475-1.426-1.425v-59.3h-15.965c-0.951,0-1.426-0.475-1.426-1.426V1.901c0-0.95,0.475-1.426,1.426-1.426h20.812
		h17.2C494.028,0.475,494.502,0.951,494.502,1.901z"/>
	<path class="st0" d="M564.979,56.734h-2.851c-0.95,0-1.426-0.476-1.426-1.426V12.164c0-0.855,0.476-1.426,1.426-1.426h2.851
		c0.95,0,1.425,0.57,1.425,1.426v43.145C566.404,56.259,565.929,56.734,564.979,56.734z"/>
	<path class="st0" d="M4.277,56.734H1.426C0.476,56.734,0,56.259,0,55.309V12.164c0-0.855,0.476-1.426,1.426-1.426h2.851
		c0.95,0,1.425,0.57,1.425,1.426v43.145C5.702,56.259,5.227,56.734,4.277,56.734z"/>
</g>
</svg>