<!-- Generator: Adobe Illustrator 21.1.0, SVG Export Plug-In  -->
<svg version="1.1"
	 xmlns="http://www.w3.org/2000/svg" xmlns:xlink="http://www.w3.org/1999/xlink" xmlns:a="http://ns.adobe.com/AdobeSVGViewerExtensions/3.0/"
	 x="0px" y="0px" width="3299.213px" height="202.033px" viewBox="0 0 3299.213 202.033"
	 style="enable-background:new 0 0 3299.213 202.033;" xml:space="preserve">
<style type="text/css">
	.st0{fill:#FFFFFF;}
</style>
<defs>
</defs>
<g>
	<path class="st0" d="M79.019,3.896L63.433,67.568c-0.285,1.045-1.045,1.425-1.9,1.425h-3.326c-0.855,0-1.521-0.38-1.806-1.425
		L39.486,12.449L22.665,67.568c-0.285,1.045-0.95,1.425-1.806,1.425h-3.421c-0.855,0-1.616-0.38-1.806-1.425L0.048,3.896
		c-0.19-0.95,0.19-1.426,1.14-1.426h3.707c0.95,0,1.52,0.476,1.711,1.426l12.828,54.833L35.969,3.896
		c0.285-0.95,0.854-1.426,1.806-1.426h3.516c0.951,0,1.521,0.476,1.807,1.426l16.439,54.833l12.83-54.833
		c0.189-0.95,0.76-1.426,1.71-1.426h3.802C78.829,2.471,79.209,2.946,79.019,3.896z"/>
	<path class="st0" d="M133.183,38.298v6.462c0,1.805-1.141,2.946-3.041,2.946h-27.654v5.322c0,6.842,3.896,10.739,10.834,10.739
		h3.42c6.367,0,8.078-2.376,10.834-5.607c0.57-0.76,1.045-0.951,1.996-0.285l1.805,1.331c0.951,0.665,0.951,1.235,0.381,1.996
		c-3.422,4.181-6.747,8.268-15.016,8.268h-3.42c-10.169,0-17.106-6.652-17.106-17.105v-13.97c0-11.024,6.938-17.296,17.106-17.296
		h3.42C125.105,21.097,133.183,27.274,133.183,38.298z M127.006,38.203c0-7.698-4.371-11.404-10.264-11.404h-3.42
		c-6.938,0-10.834,3.707-10.834,11.404v4.276h24.518V38.203z"/>
	<path class="st0" d="M226.594,37.918v29.65c0,0.95-0.475,1.425-1.426,1.425h-3.23c-0.951,0-1.426-0.475-1.426-1.425v-29.65
		c0-7.413-1.9-11.119-9.408-11.119h-1.521c-7.223,0-11.403,4.277-12.829,6.748v34.021c0,0.95-0.476,1.425-1.426,1.425h-3.23
		c-0.951,0-1.426-0.475-1.426-1.425V3.896c0-0.95,0.475-1.426,1.426-1.426h3.23c0.95,0,1.426,0.476,1.426,1.426v24.708
		c3.23-4.847,8.268-7.507,14.254-7.507h0.761C222.793,21.097,226.594,27.084,226.594,37.918z"/>
	<path class="st0" d="M283.134,68.993h-4.467c-1.045,0-1.521-0.95-1.521-2.281v-5.227c-2.756,4.562-6.842,7.982-13.399,7.982h-3.991
		c-8.648,0-14.16-4.941-14.16-14.35c0-9.503,5.418-13.685,13.971-13.685h17.58v-3.231c0-8.933-2.28-11.404-10.453-11.404h-1.996
		c-5.036,0-8.457,0.855-11.498,2.471c-0.951,0.475-1.901,0.57-2.281-0.285l-1.235-2.661c-0.285-0.665-0.285-1.14,0.665-1.71
		c3.896-2.471,9.123-3.516,14.35-3.516h1.996c11.783,0,16.535,5.417,16.535,17.201v28.415c0,0.475,0.096,1.045,0.19,1.425
		C283.513,68.518,283.609,68.993,283.134,68.993z M277.146,54.644v-7.983h-17.391c-5.132,0-8.078,1.996-8.078,8.458
		c0,6.367,2.946,8.648,8.078,8.648h4.276C271.16,63.767,275.246,59.965,277.146,54.644z"/>
	<path class="st0" d="M330.836,26.799c-0.38,0.855-1.045,1.045-1.9,0.76c-1.426-0.476-2.946-0.76-4.941-0.761h-1.141
		c-7.223,0-11.404,4.277-12.829,6.748v34.021c0,0.95-0.476,1.425-1.426,1.425h-3.231c-0.949,0-1.425-0.475-1.425-1.425V22.903
		c0-0.95,0.476-1.425,1.425-1.425h3.231c0.95,0,1.426,0.475,1.426,1.425v5.702c3.421-5.131,8.647-7.507,15.015-7.507
		c2.186,0,4.371,0.285,6.272,0.95c0.95,0.38,1.235,1.045,0.76,1.901L330.836,26.799L330.836,26.799z"/>
	<path class="st0" d="M385.383,37.918v29.65c0,0.95-0.475,1.425-1.426,1.425h-3.23c-0.951,0-1.426-0.475-1.426-1.425v-29.65
		c0-7.413-1.9-11.119-9.408-11.119h-1.521c-7.223,0-11.403,4.277-12.829,6.748v34.021c0,0.95-0.476,1.425-1.426,1.425h-3.23
		c-0.951,0-1.426-0.475-1.426-1.425V22.903c0-0.95,0.475-1.425,1.426-1.425h3.23c0.95,0,1.426,0.475,1.426,1.425v5.702
		c3.23-4.847,8.268-7.507,14.254-7.507h0.761C381.582,21.097,385.383,27.084,385.383,37.918z"/>
	<path class="st0" d="M441.828,38.298v6.462c0,1.805-1.141,2.946-3.041,2.946h-27.654v5.322c0,6.842,3.896,10.739,10.834,10.739
		h3.42c6.367,0,8.078-2.376,10.834-5.607c0.57-0.76,1.045-0.951,1.996-0.285l1.805,1.331c0.951,0.665,0.951,1.235,0.381,1.996
		c-3.422,4.181-6.747,8.268-15.016,8.268h-3.42c-10.169,0-17.106-6.652-17.106-17.105v-13.97c0-11.024,6.938-17.296,17.106-17.296
		h3.42C433.75,21.097,441.828,27.274,441.828,38.298z M435.65,38.203c0-7.698-4.371-11.404-10.264-11.404h-3.42
		c-6.938,0-10.834,3.707-10.834,11.404v4.276h24.518V38.203z"/>
	<path class="st0" d="M495.517,55.688c0,9.884-7.127,13.78-16.346,13.78h-3.706c-9.028,0-14.636-4.276-15.966-11.974
		c-0.189-0.855,0.285-1.425,1.236-1.425h3.516c0.855,0,1.426,0.475,1.615,1.331c1.141,4.371,3.896,6.367,9.599,6.367h3.802
		c5.986,0,10.168-1.901,10.168-8.078c0-6.367-4.847-7.317-12.069-8.078c-10.929-1.045-17.2-3.231-17.2-13.494
		c0-9.218,6.177-12.924,15.585-12.924h2.946c9.027,0,15.109,4.276,15.49,12.829c0,0.95-0.285,1.521-1.331,1.521h-3.231
		c-0.95,0-1.52-0.475-1.71-1.521c-0.476-4.941-3.517-7.317-9.408-7.317h-2.565c-6.082,0-9.789,1.9-9.789,7.413
		c0,5.892,3.992,7.222,11.214,7.982C487.915,43.334,495.517,44.95,495.517,55.688z"/>
	<path class="st0" d="M548.732,55.688c0,9.884-7.127,13.78-16.346,13.78h-3.706c-9.028,0-14.636-4.276-15.966-11.974
		c-0.189-0.855,0.285-1.425,1.236-1.425h3.516c0.855,0,1.426,0.475,1.615,1.331c1.141,4.371,3.896,6.367,9.599,6.367h3.802
		c5.986,0,10.168-1.901,10.168-8.078c0-6.367-4.847-7.317-12.069-8.078c-10.929-1.045-17.2-3.231-17.2-13.494
		c0-9.218,6.177-12.924,15.585-12.924h2.946c9.027,0,15.109,4.276,15.49,12.829c0,0.95-0.285,1.521-1.331,1.521h-3.231
		c-0.95,0-1.52-0.475-1.71-1.521c-0.476-4.941-3.517-7.317-9.408-7.317h-2.565c-6.082,0-9.789,1.9-9.789,7.413
		c0,5.892,3.992,7.222,11.214,7.982C541.13,43.334,548.732,44.95,548.732,55.688z"/>
	<path class="st0" d="M615.914,27.179v27.084c0,6.557,1.711,9.123,7.697,9.313c0.95,0,1.33,0.666,1.33,1.521l-0.095,2.661
		c0,0.855-0.57,1.425-1.615,1.425c-10.073-0.19-13.399-5.037-13.399-14.92V27.179h-5.037c-0.95,0-1.426-0.475-1.426-1.425v-2.756
		c0-1.045,0.476-1.521,1.426-1.521h5.037v-5.702c0-0.95,0.475-1.425,1.426-1.425h3.23c0.95,0,1.426,0.475,1.426,1.425v5.702h7.602
		c1.046,0,1.521,0.475,1.521,1.425v2.851c0,0.95-0.476,1.425-1.426,1.425H615.914z"/>
	<path class="st0" d="M679.963,37.918v29.65c0,0.95-0.475,1.425-1.426,1.425h-3.23c-0.95,0-1.426-0.475-1.426-1.425v-29.65
		c0-7.413-1.9-11.119-9.408-11.119h-1.52c-7.223,0-11.404,4.277-12.83,6.748v34.021c0,0.95-0.475,1.425-1.426,1.425h-3.23
		c-0.95,0-1.426-0.475-1.426-1.425V3.896c0-0.95,0.476-1.426,1.426-1.426h3.23c0.951,0,1.426,0.476,1.426,1.426v24.708
		c3.231-4.847,8.268-7.507,14.255-7.507h0.761C676.162,21.097,679.963,27.084,679.963,37.918z"/>
	<path class="st0" d="M736.408,38.298v6.462c0,1.805-1.141,2.946-3.041,2.946h-27.654v5.322c0,6.842,3.896,10.739,10.834,10.739
		h3.421c6.367,0,8.077-2.376,10.833-5.607c0.57-0.76,1.046-0.951,1.996-0.285l1.806,1.331c0.95,0.665,0.95,1.235,0.38,1.996
		c-3.421,4.181-6.747,8.268-15.015,8.268h-3.421c-10.168,0-17.105-6.652-17.105-17.105v-13.97c0-11.024,6.938-17.296,17.105-17.296
		h3.421C728.33,21.097,736.408,27.274,736.408,38.298z M730.231,38.203c0-7.698-4.372-11.404-10.264-11.404h-3.421
		c-6.938,0-10.834,3.707-10.834,11.404v4.276h24.519V38.203z"/>
	<path class="st0" d="M832.004,38.393v13.685c0,10.833-6.746,17.391-16.725,17.391h-3.231c-6.462,0-10.169-2.851-12.069-7.032
		v24.138c0,0.95-0.475,1.425-1.426,1.425h-3.23c-0.95,0-1.426-0.475-1.426-1.425V22.903c0-0.95,0.476-1.425,1.426-1.425h3.23
		c0.951,0,1.426,0.475,1.426,1.425v4.751c1.9-4.086,5.607-6.557,12.069-6.557h3.231C825.258,21.097,832.004,27.369,832.004,38.393z
		 M825.922,38.203c0-7.698-3.896-11.404-10.738-11.404h-4.371c-6.938,0-10.834,3.707-10.834,11.404v15.015
		c0.19,6.938,4.086,10.549,10.834,10.549h4.371c6.843,0,10.738-3.896,10.738-11.119V38.203z"/>
	<path class="st0" d="M888.07,38.393v13.685c0,10.833-6.747,17.391-16.82,17.391h-4.277c-10.168,0-16.915-6.557-16.915-17.391
		V38.393c0-11.024,6.747-17.296,16.915-17.296h4.277C881.323,21.097,888.07,27.369,888.07,38.393z M881.988,38.203
		c0-7.698-3.896-11.404-10.738-11.404h-4.277c-6.937,0-10.833,3.707-10.833,11.404v14.444c0,7.223,3.896,11.119,10.833,11.119h4.277
		c6.842,0,10.738-3.896,10.738-11.119V38.203z"/>
	<path class="st0" d="M967.893,23.093l-13.019,44.19c-0.285,1.045-1.236,1.71-2.092,1.71h-3.041c-0.949,0-1.805-0.665-2.186-1.71
		c-3.516-11.594-7.412-23.378-10.928-36.873c-3.611,13.495-7.508,25.278-11.024,36.873c-0.38,1.045-1.235,1.71-2.186,1.71h-3.041
		c-0.855,0-1.806-0.665-2.091-1.71l-13.02-44.19c-0.285-1.045,0.19-1.615,1.141-1.615h3.421c0.95,0,1.426,0.57,1.711,1.615
		c3.421,12.449,6.462,25.184,10.548,38.488c4.087-13.304,7.793-26.039,11.215-38.488c0.285-1.045,0.76-1.615,1.71-1.615h3.136
		c0.951,0,1.426,0.57,1.711,1.615c3.421,12.449,7.127,25.184,11.214,38.488c4.087-13.304,7.128-26.039,10.548-38.488
		c0.285-1.045,0.761-1.615,1.711-1.615h3.422C967.703,21.478,968.178,22.047,967.893,23.093z"/>
	<path class="st0" d="M1022.057,38.298v6.462c0,1.805-1.14,2.946-3.041,2.946h-27.654v5.322c0,6.842,3.896,10.739,10.834,10.739
		h3.421c6.367,0,8.078-2.376,10.834-5.607c0.57-0.76,1.045-0.951,1.995-0.285l1.806,1.331c0.951,0.665,0.951,1.235,0.381,1.996
		c-3.422,4.181-6.748,8.268-15.016,8.268h-3.421c-10.169,0-17.106-6.652-17.106-17.105v-13.97c0-11.024,6.938-17.296,17.106-17.296
		h3.421C1013.98,21.097,1022.057,27.274,1022.057,38.298z M1015.881,38.203c0-7.698-4.371-11.404-10.264-11.404h-3.421
		c-6.938,0-10.834,3.707-10.834,11.404v4.276h24.519V38.203z"/>
	<path class="st0" d="M1068.429,26.799c-0.38,0.855-1.045,1.045-1.9,0.76c-1.426-0.476-2.946-0.76-4.941-0.761h-1.141
		c-7.223,0-11.404,4.277-12.829,6.748v34.021c0,0.95-0.476,1.425-1.426,1.425h-3.231c-0.949,0-1.425-0.475-1.425-1.425V22.903
		c0-0.95,0.476-1.425,1.425-1.425h3.231c0.95,0,1.426,0.475,1.426,1.425v5.702c3.421-5.131,8.647-7.507,15.015-7.507
		c2.186,0,4.371,0.285,6.272,0.95c0.95,0.38,1.235,1.045,0.76,1.901L1068.429,26.799L1068.429,26.799z"/>
	<path class="st0" d="M1161.651,38.393v13.685c0,10.833-6.747,17.391-16.82,17.391h-4.276c-10.169,0-16.916-6.557-16.916-17.391
		V38.393c0-11.024,6.747-17.296,16.916-17.296h4.276C1154.904,21.097,1161.651,27.369,1161.651,38.393z M1155.569,38.203
		c0-7.698-3.896-11.404-10.738-11.404h-4.276c-6.938,0-10.834,3.707-10.834,11.404v14.444c0,7.223,3.896,11.119,10.834,11.119h4.276
		c6.842,0,10.738-3.896,10.738-11.119V38.203z"/>
	<path class="st0" d="M1207.168,1.426v2.851c0,0.951-0.475,1.426-1.426,1.426h-5.797c-6.082,0-8.647,3.421-8.647,10.644v5.132
		h13.495c0.949,0,1.425,0.475,1.425,1.425v2.851c0,0.95-0.476,1.425-1.425,1.425h-13.495v40.389c0,0.95-0.476,1.425-1.425,1.425
		h-3.137c-0.95,0-1.426-0.475-1.426-1.425V27.179h-4.656c-0.95,0-1.426-0.475-1.426-1.425v-2.851c0-0.95,0.476-1.425,1.426-1.425
		h4.656v-5.132c0-10.644,5.037-16.346,14.635-16.346h5.797C1206.693,0,1207.168,0.475,1207.168,1.426z"/>
	<path class="st0" d="M1298.678,37.918v29.65c0,0.95-0.476,1.425-1.426,1.425h-3.231c-0.949,0-1.425-0.475-1.425-1.425v-29.65
		c0-7.413-1.901-11.119-9.408-11.119h-1.521c-7.223,0-11.404,4.277-12.829,6.748v34.021c0,0.95-0.476,1.425-1.426,1.425h-3.231
		c-0.949,0-1.425-0.475-1.425-1.425V22.903c0-0.95,0.476-1.425,1.425-1.425h3.231c0.95,0,1.426,0.475,1.426,1.425v5.702
		c3.231-4.847,8.268-7.507,14.255-7.507h0.76C1294.877,21.097,1298.678,27.084,1298.678,37.918z"/>
	<path class="st0" d="M1355.123,38.298v6.462c0,1.805-1.14,2.946-3.041,2.946h-27.654v5.322c0,6.842,3.896,10.739,10.834,10.739
		h3.422c6.367,0,8.077-2.376,10.833-5.607c0.57-0.76,1.046-0.951,1.996-0.285l1.806,1.331c0.95,0.665,0.95,1.235,0.38,1.996
		c-3.421,4.181-6.747,8.268-15.015,8.268h-3.422c-10.168,0-17.105-6.652-17.105-17.105v-13.97c0-11.024,6.938-17.296,17.105-17.296
		h3.422C1347.046,21.097,1355.123,27.274,1355.123,38.298z M1348.947,38.203c0-7.698-4.372-11.404-10.264-11.404h-3.422
		c-6.938,0-10.834,3.707-10.834,11.404v4.276h24.52V38.203z"/>
	<path class="st0" d="M1374.602,52.553v-29.65c0-0.95,0.476-1.425,1.425-1.425h3.231c0.95,0,1.426,0.475,1.426,1.425v29.65
		c0,7.413,1.9,11.119,9.407,11.119h1.521c7.223,0,11.403-4.372,12.829-6.747V22.903c0-0.95,0.476-1.425,1.425-1.425h3.231
		c0.95,0,1.426,0.475,1.426,1.425v44.665c0,0.95-0.476,1.425-1.426,1.425h-3.231c-0.949,0-1.425-0.475-1.425-1.425v-5.702
		c-3.231,4.847-8.269,7.507-14.255,7.507h-0.76C1378.403,69.373,1374.602,63.386,1374.602,52.553z"/>
	<path class="st0" d="M1458.321,26.799c-0.38,0.855-1.046,1.045-1.9,0.76c-1.426-0.476-2.946-0.76-4.942-0.761h-1.14
		c-7.223,0-11.403,4.277-12.829,6.748v34.021c0,0.95-0.476,1.425-1.426,1.425h-3.23c-0.951,0-1.426-0.475-1.426-1.425V22.903
		c0-0.95,0.475-1.425,1.426-1.425h3.23c0.95,0,1.426,0.475,1.426,1.425v5.702c3.421-5.131,8.647-7.507,15.015-7.507
		c2.187,0,4.372,0.285,6.272,0.95c0.95,0.38,1.235,1.045,0.76,1.901L1458.321,26.799L1458.321,26.799z"/>
	<path class="st0" d="M1513.533,38.393v13.685c0,10.833-6.748,17.391-16.821,17.391h-4.276c-10.168,0-16.916-6.557-16.916-17.391
		V38.393c0-11.024,6.748-17.296,16.916-17.296h4.276C1506.785,21.097,1513.533,27.369,1513.533,38.393z M1507.451,38.203
		c0-7.698-3.896-11.404-10.739-11.404h-4.276c-6.938,0-10.834,3.707-10.834,11.404v14.444c0,7.223,3.896,11.119,10.834,11.119h4.276
		c6.843,0,10.739-3.896,10.739-11.119V38.203z"/>
	<path class="st0" d="M1567.222,55.688c0,9.884-7.127,13.78-16.346,13.78h-3.705c-9.029,0-14.636-4.276-15.966-11.974
		c-0.19-0.855,0.285-1.425,1.235-1.425h3.516c0.855,0,1.426,0.475,1.616,1.331c1.14,4.371,3.896,6.367,9.599,6.367h3.801
		c5.986,0,10.168-1.901,10.168-8.078c0-6.367-4.846-7.317-12.068-8.078c-10.93-1.045-17.201-3.231-17.201-13.494
		c0-9.218,6.178-12.924,15.585-12.924h2.946c9.027,0,15.109,4.276,15.49,12.829c0,0.95-0.285,1.521-1.33,1.521h-3.231
		c-0.95,0-1.521-0.475-1.711-1.521c-0.476-4.941-3.517-7.317-9.407-7.317h-2.566c-6.082,0-9.789,1.9-9.789,7.413
		c0,5.892,3.992,7.222,11.215,7.982C1559.62,43.334,1567.222,44.95,1567.222,55.688z"/>
	<path class="st0" d="M1615.116,34.782c-1.046-5.417-4.562-7.888-9.693-7.888h-3.517c-6.938,0-10.834,3.707-10.834,11.309v14.825
		c0,6.842,3.896,10.739,10.834,10.739h3.422c6.177,0,7.982-2.471,10.738-5.797c0.665-0.761,1.235-0.761,2.091-0.19l2.091,1.521
		c0.855,0.57,0.855,1.235,0.285,1.996c-3.422,4.182-6.463,8.173-15.205,8.173h-3.422c-10.168,0-17.105-6.652-17.105-17.105v-13.97
		c0-10.929,6.938-17.201,17.105-17.201h3.517c8.362,0,14.444,5.037,15.87,13.399c0.096,1.045-0.38,1.615-1.33,1.615h-3.326
		C1615.781,36.207,1615.306,35.732,1615.116,34.782z"/>
	<path class="st0" d="M1642.765,21.478h3.231c0.95,0,1.426,0.475,1.426,1.425v44.665c0,0.95-0.476,1.425-1.426,1.425h-3.231
		c-0.949,0-1.425-0.475-1.425-1.425V22.903C1641.341,21.953,1641.816,21.478,1642.765,21.478z M1642.956,2.471h2.946
		c0.95,0,1.426,0.476,1.426,1.426v3.326c0,0.95-0.476,1.425-1.426,1.425h-2.946c-0.95,0-1.425-0.475-1.425-1.425V3.896
		C1641.531,2.946,1642.006,2.471,1642.956,2.471z"/>
	<path class="st0" d="M1704.82,38.298v6.462c0,1.805-1.141,2.946-3.041,2.946h-27.654v5.322c0,6.842,3.896,10.739,10.834,10.739
		h3.421c6.367,0,8.077-2.376,10.833-5.607c0.57-0.76,1.046-0.951,1.996-0.285l1.806,1.331c0.95,0.665,0.95,1.235,0.38,1.996
		c-3.421,4.181-6.747,8.268-15.015,8.268h-3.421c-10.168,0-17.105-6.652-17.105-17.105v-13.97c0-11.024,6.938-17.296,17.105-17.296
		h3.421C1696.742,21.097,1704.82,27.274,1704.82,38.298z M1698.643,38.203c0-7.698-4.372-11.404-10.264-11.404h-3.421
		c-6.938,0-10.834,3.707-10.834,11.404v4.276h24.519V38.203z"/>
	<path class="st0" d="M1760.22,37.918v29.65c0,0.95-0.475,1.425-1.426,1.425h-3.23c-0.951,0-1.426-0.475-1.426-1.425v-29.65
		c0-7.413-1.9-11.119-9.408-11.119h-1.521c-7.223,0-11.403,4.277-12.829,6.748v34.021c0,0.95-0.476,1.425-1.426,1.425h-3.23
		c-0.951,0-1.426-0.475-1.426-1.425V22.903c0-0.95,0.475-1.425,1.426-1.425h3.23c0.95,0,1.426,0.475,1.426,1.425v5.702
		c3.23-4.847,8.268-7.507,14.254-7.507h0.761C1756.42,21.097,1760.22,27.084,1760.22,37.918z"/>
	<path class="st0" d="M1810.013,34.782c-1.045-5.417-4.562-7.888-9.693-7.888h-3.516c-6.938,0-10.834,3.707-10.834,11.309v14.825
		c0,6.842,3.896,10.739,10.834,10.739h3.42c6.178,0,7.983-2.471,10.739-5.797c0.665-0.761,1.235-0.761,2.091-0.19l2.09,1.521
		c0.855,0.57,0.855,1.235,0.285,1.996c-3.42,4.182-6.461,8.173-15.205,8.173h-3.42c-10.169,0-17.106-6.652-17.106-17.105v-13.97
		c0-10.929,6.938-17.201,17.106-17.201h3.516c8.363,0,14.445,5.037,15.87,13.399c0.095,1.045-0.38,1.615-1.331,1.615h-3.325
		C1810.678,36.207,1810.203,35.732,1810.013,34.782z"/>
	<path class="st0" d="M1870.83,38.298v6.462c0,1.805-1.14,2.946-3.041,2.946h-27.654v5.322c0,6.842,3.896,10.739,10.834,10.739
		h3.422c6.367,0,8.077-2.376,10.833-5.607c0.57-0.76,1.046-0.951,1.996-0.285l1.806,1.331c0.95,0.665,0.95,1.235,0.38,1.996
		c-3.421,4.181-6.747,8.268-15.015,8.268h-3.422c-10.168,0-17.105-6.652-17.105-17.105v-13.97c0-11.024,6.938-17.296,17.105-17.296
		h3.422C1862.753,21.097,1870.83,27.274,1870.83,38.298z M1864.654,38.203c0-7.698-4.372-11.404-10.264-11.404h-3.422
		c-6.938,0-10.834,3.707-10.834,11.404v4.276h24.52V38.203z"/>
	<path class="st0" d="M1938.487,27.179v27.084c0,6.557,1.711,9.123,7.698,9.313c0.949,0,1.33,0.666,1.33,1.521l-0.096,2.661
		c0,0.855-0.57,1.425-1.615,1.425c-10.073-0.19-13.399-5.037-13.399-14.92V27.179h-5.036c-0.951,0-1.426-0.475-1.426-1.425v-2.756
		c0-1.045,0.475-1.521,1.426-1.521h5.036v-5.702c0-0.95,0.476-1.425,1.426-1.425h3.231c0.949,0,1.425,0.475,1.425,1.425v5.702h7.603
		c1.045,0,1.521,0.475,1.521,1.425v2.851c0,0.95-0.476,1.425-1.425,1.425H1938.487z"/>
	<path class="st0" d="M2002.537,37.918v29.65c0,0.95-0.476,1.425-1.426,1.425h-3.231c-0.95,0-1.425-0.475-1.425-1.425v-29.65
		c0-7.413-1.901-11.119-9.408-11.119h-1.521c-7.223,0-11.403,4.277-12.829,6.748v34.021c0,0.95-0.476,1.425-1.425,1.425h-3.231
		c-0.95,0-1.426-0.475-1.426-1.425V3.896c0-0.95,0.476-1.426,1.426-1.426h3.231c0.949,0,1.425,0.476,1.425,1.426v24.708
		c3.231-4.847,8.269-7.507,14.255-7.507h0.76C1998.735,21.097,2002.537,27.084,2002.537,37.918z"/>
	<path class="st0" d="M2050.334,26.799c-0.381,0.855-1.046,1.045-1.9,0.76c-1.426-0.476-2.947-0.76-4.942-0.761h-1.14
		c-7.223,0-11.404,4.277-12.83,6.748v34.021c0,0.95-0.475,1.425-1.426,1.425h-3.23c-0.95,0-1.426-0.475-1.426-1.425V22.903
		c0-0.95,0.476-1.425,1.426-1.425h3.23c0.951,0,1.426,0.475,1.426,1.425v5.702c3.422-5.131,8.648-7.507,15.016-7.507
		c2.186,0,4.371,0.285,6.271,0.95c0.951,0.38,1.236,1.045,0.761,1.901L2050.334,26.799L2050.334,26.799z"/>
	<path class="st0" d="M2105.545,38.393v13.685c0,10.833-6.747,17.391-16.82,17.391h-4.277c-10.168,0-16.915-6.557-16.915-17.391
		V38.393c0-11.024,6.747-17.296,16.915-17.296h4.277C2098.798,21.097,2105.545,27.369,2105.545,38.393z M2099.463,38.203
		c0-7.698-3.896-11.404-10.738-11.404h-4.277c-6.937,0-10.833,3.707-10.833,11.404v14.444c0,7.223,3.896,11.119,10.833,11.119h4.277
		c6.842,0,10.738-3.896,10.738-11.119V38.203z"/>
	<path class="st0" d="M2125.023,52.553v-29.65c0-0.95,0.475-1.425,1.426-1.425h3.23c0.95,0,1.426,0.475,1.426,1.425v29.65
		c0,7.413,1.9,11.119,9.408,11.119h1.52c7.223,0,11.404-4.372,12.83-6.747V22.903c0-0.95,0.475-1.425,1.426-1.425h3.23
		c0.951,0,1.426,0.475,1.426,1.425v44.665c0,0.95-0.475,1.425-1.426,1.425h-3.23c-0.951,0-1.426-0.475-1.426-1.425v-5.702
		c-3.231,4.847-8.268,7.507-14.255,7.507h-0.761C2128.824,69.373,2125.023,63.386,2125.023,52.553z"/>
	<path class="st0" d="M2218.531,22.903v48.656c0,11.119-6.652,16.44-19.481,16.44c-3.041,0-5.513-0.095-8.743-0.855
		c-0.57-0.095-1.045-0.475-1.045-1.14v-3.516c0-0.57,0.475-1.045,1.045-0.951c3.23,0.761,5.702,0.855,8.743,0.855
		c8.458,0,13.399-1.806,13.399-10.644v-9.313c-1.9,4.181-5.512,7.032-12.069,7.032h-3.136c-10.073,0-16.82-6.557-16.82-17.391
		V38.393c0-11.024,6.747-17.296,16.82-17.296h3.136c6.558,0,10.169,2.471,12.069,6.557v-4.751c0-0.95,0.57-1.425,1.426-1.425h3.23
		C2218.056,21.478,2218.531,21.953,2218.531,22.903z M2212.449,52.647V38.203c0-7.698-3.896-11.404-10.738-11.404h-4.372
		c-6.937,0-10.833,3.707-10.833,11.404v14.444c0,7.223,3.896,11.119,10.833,11.119h4.372
		C2208.552,63.767,2212.449,59.87,2212.449,52.647z"/>
	<path class="st0" d="M2275.357,37.918v29.65c0,0.95-0.475,1.425-1.426,1.425h-3.23c-0.951,0-1.426-0.475-1.426-1.425v-29.65
		c0-7.413-1.9-11.119-9.408-11.119h-1.521c-7.223,0-11.403,4.277-12.829,6.748v34.021c0,0.95-0.476,1.425-1.426,1.425h-3.23
		c-0.951,0-1.426-0.475-1.426-1.425V3.896c0-0.95,0.475-1.426,1.426-1.426h3.23c0.95,0,1.426,0.476,1.426,1.426v24.708
		c3.23-4.847,8.268-7.507,14.254-7.507h0.761C2271.556,21.097,2275.357,27.084,2275.357,37.918z"/>
	<path class="st0" d="M2370.953,3.896v63.671c0,0.95-0.475,1.425-1.426,1.425h-3.23c-0.855,0-1.426-0.475-1.426-1.425v-5.132
		c-1.9,4.181-5.512,7.032-12.069,7.032h-3.136c-10.073,0-16.82-6.557-16.82-17.391V38.393c0-11.024,6.747-17.296,16.82-17.296h3.136
		c6.558,0,10.169,2.471,12.069,6.557V3.896c0-0.95,0.57-1.426,1.426-1.426h3.23C2370.478,2.471,2370.953,2.946,2370.953,3.896z
		 M2364.871,52.647V38.203c0-7.698-3.896-11.404-10.738-11.404h-4.372c-6.937,0-10.833,3.707-10.833,11.404v14.444
		c0,7.223,3.896,11.119,10.833,11.119h4.372C2360.974,63.767,2364.871,59.87,2364.871,52.647z"/>
	<path class="st0" d="M2427.398,38.298v6.462c0,1.805-1.14,2.946-3.041,2.946h-27.654v5.322c0,6.842,3.896,10.739,10.834,10.739
		h3.422c6.367,0,8.077-2.376,10.833-5.607c0.57-0.76,1.046-0.951,1.996-0.285l1.806,1.331c0.95,0.665,0.95,1.235,0.38,1.996
		c-3.421,4.181-6.747,8.268-15.015,8.268h-3.422c-10.168,0-17.105-6.652-17.105-17.105v-13.97c0-11.024,6.938-17.296,17.105-17.296
		h3.422C2419.321,21.097,2427.398,27.274,2427.398,38.298z M2421.222,38.203c0-7.698-4.372-11.404-10.264-11.404h-3.422
		c-6.938,0-10.834,3.707-10.834,11.404v4.276h24.52V38.203z"/>
	<path class="st0" d="M2481.089,55.688c0,9.884-7.127,13.78-16.345,13.78h-3.707c-9.027,0-14.635-4.276-15.965-11.974
		c-0.19-0.855,0.285-1.425,1.235-1.425h3.517c0.854,0,1.425,0.475,1.615,1.331c1.141,4.371,3.896,6.367,9.598,6.367h3.802
		c5.987,0,10.168-1.901,10.168-8.078c0-6.367-4.847-7.317-12.069-8.078c-10.928-1.045-17.2-3.231-17.2-13.494
		c0-9.218,6.177-12.924,15.585-12.924h2.946c9.028,0,15.11,4.276,15.49,12.829c0,0.95-0.285,1.521-1.331,1.521h-3.23
		c-0.95,0-1.521-0.475-1.711-1.521c-0.475-4.941-3.516-7.317-9.408-7.317h-2.565c-6.082,0-9.788,1.9-9.788,7.413
		c0,5.892,3.991,7.222,11.213,7.982C2473.486,43.334,2481.089,44.95,2481.089,55.688z"/>
	<path class="st0" d="M2502.469,21.478h3.23c0.951,0,1.426,0.475,1.426,1.425v44.665c0,0.95-0.475,1.425-1.426,1.425h-3.23
		c-0.951,0-1.426-0.475-1.426-1.425V22.903C2501.043,21.953,2501.517,21.478,2502.469,21.478z M2502.658,2.471h2.946
		c0.95,0,1.425,0.476,1.425,1.426v3.326c0,0.95-0.475,1.425-1.425,1.425h-2.946c-0.95,0-1.426-0.475-1.426-1.425V3.896
		C2501.232,2.946,2501.708,2.471,2502.658,2.471z"/>
	<path class="st0" d="M2565.662,22.903v48.656c0,11.119-6.652,16.44-19.48,16.44c-3.041,0-5.513-0.095-8.744-0.855
		c-0.57-0.095-1.045-0.475-1.045-1.14v-3.516c0-0.57,0.475-1.045,1.045-0.951c3.231,0.761,5.703,0.855,8.744,0.855
		c8.457,0,13.398-1.806,13.398-10.644v-9.313c-1.9,4.181-5.512,7.032-12.068,7.032h-3.137c-10.073,0-16.82-6.557-16.82-17.391
		V38.393c0-11.024,6.747-17.296,16.82-17.296h3.137c6.557,0,10.168,2.471,12.068,6.557v-4.751c0-0.95,0.57-1.425,1.426-1.425h3.23
		C2565.187,21.478,2565.662,21.953,2565.662,22.903z M2559.58,52.647V38.203c0-7.698-3.896-11.404-10.738-11.404h-4.371
		c-6.938,0-10.834,3.707-10.834,11.404v14.444c0,7.223,3.896,11.119,10.834,11.119h4.371
		C2555.683,63.767,2559.58,59.87,2559.58,52.647z"/>
	<path class="st0" d="M2622.489,37.918v29.65c0,0.95-0.476,1.425-1.426,1.425h-3.23c-0.951,0-1.426-0.475-1.426-1.425v-29.65
		c0-7.413-1.9-11.119-9.408-11.119h-1.521c-7.223,0-11.404,4.277-12.829,6.748v34.021c0,0.95-0.476,1.425-1.426,1.425h-3.231
		c-0.95,0-1.425-0.475-1.425-1.425V22.903c0-0.95,0.475-1.425,1.425-1.425h3.231c0.95,0,1.426,0.475,1.426,1.425v5.702
		c3.23-4.847,8.268-7.507,14.255-7.507h0.76C2618.687,21.097,2622.489,27.084,2622.489,37.918z"/>
	<path class="st0" d="M2691.57,27.179v27.084c0,6.557,1.711,9.123,7.698,9.313c0.95,0,1.33,0.666,1.33,1.521l-0.095,2.661
		c0,0.855-0.57,1.425-1.616,1.425c-10.073-0.19-13.399-5.037-13.399-14.92V27.179h-5.036c-0.951,0-1.426-0.475-1.426-1.425v-2.756
		c0-1.045,0.475-1.521,1.426-1.521h5.036v-5.702c0-0.95,0.476-1.425,1.426-1.425h3.231c0.95,0,1.425,0.475,1.425,1.425v5.702h7.603
		c1.046,0,1.521,0.475,1.521,1.425v2.851c0,0.95-0.475,1.425-1.425,1.425H2691.57z"/>
	<path class="st0" d="M2756.285,38.393v13.685c0,10.833-6.747,17.391-16.82,17.391h-4.276c-10.169,0-16.916-6.557-16.916-17.391
		V38.393c0-11.024,6.747-17.296,16.916-17.296h4.276C2749.538,21.097,2756.285,27.369,2756.285,38.393z M2750.203,38.203
		c0-7.698-3.896-11.404-10.738-11.404h-4.276c-6.938,0-10.834,3.707-10.834,11.404v14.444c0,7.223,3.896,11.119,10.834,11.119h4.276
		c6.842,0,10.738-3.896,10.738-11.119V38.203z"/>
	<path class="st0" d="M2851.882,38.393v13.685c0,10.833-6.747,17.391-16.726,17.391h-3.231c-6.462,0-10.168-2.851-12.068-7.032
		v24.138c0,0.95-0.476,1.425-1.426,1.425h-3.231c-0.95,0-1.425-0.475-1.425-1.425V22.903c0-0.95,0.475-1.425,1.425-1.425h3.231
		c0.95,0,1.426,0.475,1.426,1.425v4.751c1.9-4.086,5.606-6.557,12.068-6.557h3.231C2845.135,21.097,2851.882,27.369,2851.882,38.393
		z M2845.8,38.203c0-7.698-3.896-11.404-10.738-11.404h-4.372c-6.937,0-10.833,3.707-10.833,11.404v15.015
		c0.189,6.938,4.086,10.549,10.833,10.549h4.372c6.842,0,10.738-3.896,10.738-11.119V38.203z"/>
	<path class="st0" d="M2907.947,38.393v13.685c0,10.833-6.747,17.391-16.82,17.391h-4.276c-10.169,0-16.916-6.557-16.916-17.391
		V38.393c0-11.024,6.747-17.296,16.916-17.296h4.276C2901.2,21.097,2907.947,27.369,2907.947,38.393z M2901.865,38.203
		c0-7.698-3.896-11.404-10.738-11.404h-4.276c-6.938,0-10.834,3.707-10.834,11.404v14.444c0,7.223,3.896,11.119,10.834,11.119h4.276
		c6.842,0,10.738-3.896,10.738-11.119V38.203z"/>
	<path class="st0" d="M2987.77,23.093l-13.02,44.19c-0.285,1.045-1.235,1.71-2.09,1.71h-3.041c-0.951,0-1.806-0.665-2.187-1.71
		c-3.516-11.594-7.412-23.378-10.929-36.873c-3.611,13.495-7.507,25.278-11.023,36.873c-0.38,1.045-1.235,1.71-2.186,1.71h-3.041
		c-0.855,0-1.806-0.665-2.091-1.71l-13.02-44.19c-0.285-1.045,0.19-1.615,1.141-1.615h3.421c0.95,0,1.426,0.57,1.711,1.615
		c3.421,12.449,6.462,25.184,10.549,38.488c4.086-13.304,7.792-26.039,11.213-38.488c0.285-1.045,0.761-1.615,1.711-1.615h3.136
		c0.95,0,1.426,0.57,1.711,1.615c3.421,12.449,7.127,25.184,11.214,38.488c4.086-13.304,7.127-26.039,10.549-38.488
		c0.285-1.045,0.76-1.615,1.71-1.615h3.421C2987.581,21.478,2988.055,22.047,2987.77,23.093z"/>
	<path class="st0" d="M3041.935,38.298v6.462c0,1.805-1.141,2.946-3.041,2.946h-27.654v5.322c0,6.842,3.896,10.739,10.833,10.739
		h3.422c6.367,0,8.077-2.376,10.833-5.607c0.57-0.76,1.046-0.951,1.996-0.285l1.806,1.331c0.95,0.665,0.95,1.235,0.38,1.996
		c-3.421,4.181-6.747,8.268-15.015,8.268h-3.422c-10.168,0-17.105-6.652-17.105-17.105v-13.97c0-11.024,6.938-17.296,17.105-17.296
		h3.422C3033.857,21.097,3041.935,27.274,3041.935,38.298z M3035.758,38.203c0-7.698-4.371-11.404-10.263-11.404h-3.422
		c-6.938,0-10.833,3.707-10.833,11.404v4.276h24.518V38.203z"/>
	<path class="st0" d="M3088.307,26.799c-0.38,0.855-1.045,1.045-1.9,0.76c-1.426-0.476-2.946-0.76-4.941-0.761h-1.141
		c-7.223,0-11.404,4.277-12.829,6.748v34.021c0,0.95-0.476,1.425-1.426,1.425h-3.231c-0.95,0-1.425-0.475-1.425-1.425V22.903
		c0-0.95,0.475-1.425,1.425-1.425h3.231c0.95,0,1.426,0.475,1.426,1.425v5.702c3.421-5.131,8.647-7.507,15.015-7.507
		c2.186,0,4.371,0.285,6.272,0.95c0.95,0.38,1.235,1.045,0.76,1.901L3088.307,26.799L3088.307,26.799z"/>
	<path class="st0" d="M3132.969,1.426v2.851c0,0.951-0.475,1.426-1.425,1.426h-5.797c-6.082,0-8.648,3.421-8.648,10.644v5.132
		h13.495c0.95,0,1.425,0.475,1.425,1.425v2.851c0,0.95-0.475,1.425-1.425,1.425h-13.495v40.389c0,0.95-0.475,1.425-1.425,1.425
		h-3.137c-0.95,0-1.426-0.475-1.426-1.425V27.179h-4.656c-0.95,0-1.426-0.475-1.426-1.425v-2.851c0-0.95,0.476-1.425,1.426-1.425
		h4.656v-5.132c0-10.644,5.037-16.346,14.636-16.346h5.797C3132.495,0,3132.969,0.475,3132.969,1.426z"/>
	<path class="st0" d="M3150.549,52.553v-29.65c0-0.95,0.475-1.425,1.425-1.425h3.231c0.95,0,1.426,0.475,1.426,1.425v29.65
		c0,7.413,1.9,11.119,9.408,11.119h1.521c7.222,0,11.403-4.372,12.829-6.747V22.903c0-0.95,0.475-1.425,1.426-1.425h3.23
		c0.95,0,1.426,0.475,1.426,1.425v44.665c0,0.95-0.476,1.425-1.426,1.425h-3.23c-0.951,0-1.426-0.475-1.426-1.425v-5.702
		c-3.231,4.847-8.268,7.507-14.255,7.507h-0.76C3154.349,69.373,3150.549,63.386,3150.549,52.553z"/>
	<path class="st0" d="M3208.799,2.471h3.231c0.95,0,1.426,0.476,1.426,1.426v63.671c0,0.95-0.476,1.425-1.426,1.425h-3.231
		c-0.95,0-1.425-0.475-1.425-1.425V3.896C3207.374,2.946,3207.848,2.471,3208.799,2.471z"/>
	<path class="st0" d="M3235.786,2.471h3.231c0.95,0,1.426,0.476,1.426,1.426v63.671c0,0.95-0.476,1.425-1.426,1.425h-3.231
		c-0.95,0-1.425-0.475-1.425-1.425V3.896C3234.361,2.946,3234.836,2.471,3235.786,2.471z"/>
	<path class="st0" d="M3299.075,22.998l-24.993,63.386c-0.57,1.331-1.331,1.616-1.996,1.616h-3.231c-1.14,0-1.33-0.76-0.95-1.71
		l7.603-19.387l-17.391-43.904c-0.285-0.761-0.189-1.521,0.855-1.521h3.706c0.855,0,1.141,0.38,1.615,1.521l14.255,36.302
		l14.35-36.302c0.476-1.141,0.761-1.521,1.616-1.521h3.706C3299.264,21.478,3299.36,22.237,3299.075,22.998z"/>
	<path class="st0" d="M630.927,148.815c-1.045-5.417-4.562-7.888-9.693-7.888h-3.516c-6.938,0-10.834,3.706-10.834,11.309v14.825
		c0,6.842,3.896,10.739,10.834,10.739h3.421c6.177,0,7.983-2.471,10.739-5.797c0.664-0.76,1.234-0.76,2.09-0.19l2.091,1.521
		c0.855,0.57,0.855,1.235,0.285,1.996c-3.421,4.182-6.462,8.173-15.205,8.173h-3.421c-10.168,0-17.105-6.652-17.105-17.105v-13.97
		c0-10.929,6.938-17.201,17.105-17.201h3.516c8.363,0,14.445,5.037,15.871,13.399c0.095,1.045-0.381,1.615-1.331,1.615h-3.326
		C631.594,150.241,631.118,149.766,630.927,148.815z"/>
	<path class="st0" d="M692.79,152.427v13.685c0,10.833-6.747,17.391-16.82,17.391h-4.276c-10.169,0-16.916-6.557-16.916-17.391
		v-13.685c0-11.024,6.747-17.296,16.916-17.296h4.276C686.043,135.131,692.79,141.403,692.79,152.427z M686.708,152.236
		c0-7.697-3.896-11.403-10.738-11.403h-4.276c-6.938,0-10.834,3.706-10.834,11.403v14.445c0,7.222,3.896,11.119,10.834,11.119h4.276
		c6.842,0,10.738-3.896,10.738-11.119V152.236z"/>
	<path class="st0" d="M748.19,151.952v29.65c0,0.95-0.476,1.425-1.426,1.425h-3.231c-0.949,0-1.425-0.475-1.425-1.425v-29.65
		c0-7.413-1.901-11.119-9.408-11.119h-1.521c-7.223,0-11.404,4.276-12.829,6.747v34.021c0,0.95-0.476,1.425-1.426,1.425h-3.231
		c-0.949,0-1.425-0.475-1.425-1.425v-44.665c0-0.95,0.476-1.426,1.425-1.426h3.231c0.95,0,1.426,0.476,1.426,1.426v5.702
		c3.231-4.846,8.268-7.507,14.255-7.507h0.76C744.388,135.131,748.19,141.118,748.19,151.952z"/>
	<path class="st0" d="M805.015,151.952v29.65c0,0.95-0.475,1.425-1.426,1.425h-3.23c-0.95,0-1.426-0.475-1.426-1.425v-29.65
		c0-7.413-1.9-11.119-9.408-11.119h-1.52c-7.223,0-11.404,4.276-12.83,6.747v34.021c0,0.95-0.475,1.425-1.426,1.425h-3.23
		c-0.95,0-1.426-0.475-1.426-1.425v-44.665c0-0.95,0.476-1.426,1.426-1.426h3.23c0.951,0,1.426,0.476,1.426,1.426v5.702
		c3.231-4.846,8.268-7.507,14.255-7.507h0.761C801.215,135.131,805.015,141.118,805.015,151.952z"/>
	<path class="st0" d="M861.461,152.332v6.462c0,1.806-1.141,2.946-3.041,2.946h-27.654v5.322c0,6.842,3.896,10.739,10.834,10.739
		h3.421c6.367,0,8.077-2.376,10.833-5.607c0.57-0.76,1.046-0.95,1.996-0.285l1.806,1.331c0.95,0.665,0.95,1.235,0.38,1.996
		c-3.421,4.181-6.747,8.268-15.015,8.268h-3.421c-10.168,0-17.105-6.652-17.105-17.105v-13.97c0-11.024,6.938-17.296,17.105-17.296
		h3.421C853.383,135.131,861.461,141.308,861.461,152.332z M855.284,152.236c0-7.697-4.372-11.403-10.264-11.403h-3.421
		c-6.938,0-10.834,3.706-10.834,11.403v4.277h24.519V152.236z"/>
	<path class="st0" d="M909.829,148.815c-1.046-5.417-4.562-7.888-9.693-7.888h-3.517c-6.938,0-10.834,3.706-10.834,11.309v14.825
		c0,6.842,3.896,10.739,10.834,10.739h3.422c6.177,0,7.982-2.471,10.738-5.797c0.665-0.76,1.235-0.76,2.091-0.19l2.091,1.521
		c0.855,0.57,0.855,1.235,0.285,1.996c-3.422,4.182-6.463,8.173-15.205,8.173h-3.422c-10.168,0-17.105-6.652-17.105-17.105v-13.97
		c0-10.929,6.938-17.201,17.105-17.201h3.517c8.362,0,14.444,5.037,15.87,13.399c0.096,1.045-0.38,1.615-1.33,1.615h-3.326
		C910.494,150.241,910.019,149.766,909.829,148.815z"/>
	<path class="st0" d="M945.271,141.213v27.084c0,6.557,1.711,9.123,7.698,9.313c0.95,0,1.331,0.666,1.331,1.521l-0.096,2.661
		c0,0.855-0.57,1.425-1.615,1.425c-10.074-0.19-13.4-5.037-13.4-14.92v-27.084h-5.036c-0.95,0-1.425-0.475-1.425-1.425v-2.756
		c0-1.045,0.475-1.521,1.425-1.521h5.036v-5.702c0-0.95,0.476-1.425,1.426-1.425h3.231c0.95,0,1.425,0.475,1.425,1.425v5.702h7.604
		c1.045,0,1.52,0.476,1.52,1.426v2.851c0,0.95-0.475,1.425-1.425,1.425H945.271z"/>
	<path class="st0" d="M1013.785,135.511h3.23c0.951,0,1.426,0.476,1.426,1.426v44.665c0,0.95-0.475,1.425-1.426,1.425h-3.23
		c-0.95,0-1.426-0.475-1.426-1.425v-44.665C1012.359,135.986,1012.835,135.511,1013.785,135.511z M1013.974,116.505h2.947
		c0.949,0,1.425,0.475,1.425,1.425v3.326c0,0.95-0.476,1.425-1.425,1.425h-2.947c-0.949,0-1.425-0.475-1.425-1.425v-3.326
		C1012.55,116.98,1013.025,116.505,1013.974,116.505z"/>
	<path class="st0" d="M1106.059,151.952v29.65c0,0.95-0.476,1.425-1.425,1.425h-3.232c-0.949,0-1.425-0.475-1.425-1.425v-29.65
		c0-7.413-1.995-11.119-9.408-11.119h-1.521c-7.223,0-11.404,4.276-12.829,6.747v34.021c0,0.95-0.476,1.425-1.426,1.425h-3.231
		c-0.949,0-1.425-0.475-1.425-1.425v-29.65c0-7.413-1.901-11.119-9.408-11.119h-1.521c-7.223,0-11.404,4.276-12.829,6.747v34.021
		c0,0.95-0.476,1.425-1.426,1.425h-3.231c-0.949,0-1.425-0.475-1.425-1.425v-44.665c0-0.95,0.476-1.426,1.425-1.426h3.231
		c0.95,0,1.426,0.476,1.426,1.426v5.702c3.231-4.846,8.268-7.507,14.255-7.507h0.76c7.982,0,12.164,3.136,13.875,8.933l0.95-1.426
		c3.231-4.846,8.268-7.507,14.255-7.507h0.76C1102.258,135.131,1106.059,141.118,1106.059,151.952z"/>
	<path class="st0" d="M1165.07,152.427v13.685c0,10.833-6.747,17.391-16.726,17.391h-3.231c-6.462,0-10.168-2.851-12.068-7.032
		v24.138c0,0.95-0.476,1.425-1.426,1.425h-3.23c-0.951,0-1.426-0.475-1.426-1.425v-63.671c0-0.95,0.475-1.426,1.426-1.426h3.23
		c0.95,0,1.426,0.476,1.426,1.426v4.751c1.9-4.086,5.606-6.557,12.068-6.557h3.231
		C1158.323,135.131,1165.07,141.403,1165.07,152.427z M1158.988,152.236c0-7.697-3.896-11.403-10.738-11.403h-4.371
		c-6.938,0-10.834,3.706-10.834,11.403v15.015c0.189,6.938,4.086,10.549,10.834,10.549h4.371c6.842,0,10.738-3.896,10.738-11.119
		V152.236z"/>
	<path class="st0" d="M1220.185,183.027h-4.466c-1.046,0-1.521-0.95-1.521-2.281v-5.227c-2.756,4.562-6.843,7.982-13.4,7.982h-3.99
		c-8.648,0-14.16-4.941-14.16-14.35c0-9.503,5.417-13.685,13.97-13.685h17.581v-3.231c0-8.933-2.281-11.403-10.453-11.403h-1.996
		c-5.037,0-8.458,0.855-11.499,2.471c-0.95,0.475-1.9,0.57-2.28-0.285l-1.236-2.661c-0.285-0.665-0.285-1.14,0.666-1.71
		c3.896-2.471,9.123-3.516,14.35-3.516h1.996c11.783,0,16.535,5.417,16.535,17.201v28.415c0,0.475,0.095,1.045,0.189,1.425
		C1220.566,182.552,1220.661,183.027,1220.185,183.027z M1214.199,168.677v-7.983h-17.391c-5.133,0-8.078,1.996-8.078,8.458
		c0,6.367,2.945,8.648,8.078,8.648h4.275C1208.212,177.8,1212.299,173.999,1214.199,168.677z"/>
	<path class="st0" d="M1269.885,148.815c-1.045-5.417-4.562-7.888-9.693-7.888h-3.516c-6.938,0-10.834,3.706-10.834,11.309v14.825
		c0,6.842,3.896,10.739,10.834,10.739h3.42c6.178,0,7.983-2.471,10.739-5.797c0.665-0.76,1.235-0.76,2.091-0.19l2.09,1.521
		c0.855,0.57,0.855,1.235,0.285,1.996c-3.42,4.182-6.461,8.173-15.205,8.173h-3.42c-10.169,0-17.106-6.652-17.106-17.105v-13.97
		c0-10.929,6.938-17.201,17.106-17.201h3.516c8.363,0,14.445,5.037,15.87,13.399c0.095,1.045-0.38,1.615-1.331,1.615h-3.325
		C1270.55,150.241,1270.074,149.766,1269.885,148.815z"/>
	<path class="st0" d="M1305.328,141.213v27.084c0,6.557,1.711,9.123,7.697,9.313c0.95,0,1.33,0.666,1.33,1.521l-0.095,2.661
		c0,0.855-0.57,1.425-1.615,1.425c-10.073-0.19-13.399-5.037-13.399-14.92v-27.084h-5.037c-0.95,0-1.426-0.475-1.426-1.425v-2.756
		c0-1.045,0.476-1.521,1.426-1.521h5.037v-5.702c0-0.95,0.475-1.425,1.426-1.425h3.23c0.95,0,1.426,0.475,1.426,1.425v5.702h7.602
		c1.046,0,1.521,0.476,1.521,1.426v2.851c0,0.95-0.476,1.425-1.426,1.425H1305.328z"/>
	<path class="st0" d="M1407.007,152.332v6.462c0,1.806-1.14,2.946-3.041,2.946h-27.654v5.322c0,6.842,3.896,10.739,10.834,10.739
		h3.421c6.367,0,8.078-2.376,10.834-5.607c0.57-0.76,1.045-0.95,1.995-0.285l1.806,1.331c0.951,0.665,0.951,1.235,0.381,1.996
		c-3.422,4.181-6.748,8.268-15.016,8.268h-3.421c-10.169,0-17.106-6.652-17.106-17.105v-13.97c0-11.024,6.938-17.296,17.106-17.296
		h3.421C1398.929,135.131,1407.007,141.308,1407.007,152.332z M1400.83,152.236c0-7.697-4.371-11.403-10.264-11.403h-3.421
		c-6.938,0-10.834,3.706-10.834,11.403v4.277h24.519V152.236z"/>
	<path class="st0" d="M1462.407,151.952v29.65c0,0.95-0.476,1.425-1.426,1.425h-3.231c-0.949,0-1.425-0.475-1.425-1.425v-29.65
		c0-7.413-1.901-11.119-9.408-11.119h-1.521c-7.223,0-11.404,4.276-12.829,6.747v34.021c0,0.95-0.476,1.425-1.426,1.425h-3.231
		c-0.949,0-1.425-0.475-1.425-1.425v-44.665c0-0.95,0.476-1.426,1.425-1.426h3.231c0.95,0,1.426,0.476,1.426,1.426v5.702
		c3.231-4.846,8.268-7.507,14.255-7.507h0.76C1458.605,135.131,1462.407,141.118,1462.407,151.952z"/>
	<path class="st0" d="M1493.478,141.213v27.084c0,6.557,1.711,9.123,7.697,9.313c0.951,0,1.331,0.666,1.331,1.521l-0.095,2.661
		c0,0.855-0.57,1.425-1.616,1.425c-10.073-0.19-13.399-5.037-13.399-14.92v-27.084h-5.037c-0.949,0-1.425-0.475-1.425-1.425v-2.756
		c0-1.045,0.476-1.521,1.425-1.521h5.037v-5.702c0-0.95,0.476-1.425,1.426-1.425h3.23c0.951,0,1.426,0.475,1.426,1.425v5.702h7.603
		c1.046,0,1.521,0.476,1.521,1.426v2.851c0,0.95-0.475,1.425-1.426,1.425H1493.478z"/>
	<path class="st0" d="M1546.599,141.593c-1.426-0.476-2.946-0.76-4.941-0.76h-1.141c-7.223,0-11.404,4.276-12.829,6.747v34.021
		c0,0.95-0.476,1.425-1.426,1.425h-3.231c-0.949,0-1.425-0.475-1.425-1.425v-44.665c0-0.95,0.476-1.426,1.425-1.426h3.231
		c0.95,0,1.426,0.476,1.426,1.426v5.702c3.421-5.131,8.647-7.507,15.015-7.507c2.186,0,4.371,0.285,6.272,0.95
		c0.95,0.38,1.235,1.045,0.76,1.901l-1.235,2.851C1548.12,141.688,1547.455,141.878,1546.599,141.593z"/>
	<path class="st0" d="M1602.666,152.332v6.462c0,1.806-1.141,2.946-3.041,2.946h-27.654v5.322c0,6.842,3.896,10.739,10.834,10.739
		h3.421c6.367,0,8.077-2.376,10.833-5.607c0.57-0.76,1.046-0.95,1.996-0.285l1.806,1.331c0.95,0.665,0.95,1.235,0.38,1.996
		c-3.421,4.181-6.747,8.268-15.015,8.268h-3.421c-10.168,0-17.105-6.652-17.105-17.105v-13.97c0-11.024,6.938-17.296,17.105-17.296
		h3.421C1594.588,135.131,1602.666,141.308,1602.666,152.332z M1596.489,152.236c0-7.697-4.372-11.403-10.264-11.403h-3.421
		c-6.938,0-10.834,3.706-10.834,11.403v4.277h24.519V152.236z"/>
	<path class="st0" d="M1660.252,152.427v13.685c0,10.833-6.747,17.391-16.726,17.391h-3.231c-6.462,0-10.168-2.851-12.068-7.032
		v24.138c0,0.95-0.476,1.425-1.426,1.425h-3.23c-0.951,0-1.426-0.475-1.426-1.425v-63.671c0-0.95,0.475-1.426,1.426-1.426h3.23
		c0.95,0,1.426,0.476,1.426,1.426v4.751c1.9-4.086,5.606-6.557,12.068-6.557h3.231
		C1653.505,135.131,1660.252,141.403,1660.252,152.427z M1654.17,152.236c0-7.697-3.896-11.403-10.738-11.403h-4.371
		c-6.938,0-10.834,3.706-10.834,11.403v15.015c0.189,6.938,4.086,10.549,10.834,10.549h4.371c6.842,0,10.738-3.896,10.738-11.119
		V152.236z"/>
	<path class="st0" d="M1704.724,141.593c-1.426-0.476-2.947-0.76-4.942-0.76h-1.14c-7.223,0-11.404,4.276-12.83,6.747v34.021
		c0,0.95-0.475,1.425-1.426,1.425h-3.23c-0.95,0-1.426-0.475-1.426-1.425v-44.665c0-0.95,0.476-1.426,1.426-1.426h3.23
		c0.951,0,1.426,0.476,1.426,1.426v5.702c3.422-5.131,8.648-7.507,15.016-7.507c2.186,0,4.371,0.285,6.271,0.95
		c0.951,0.38,1.236,1.045,0.761,1.901l-1.235,2.851C1706.244,141.688,1705.579,141.878,1704.724,141.593z"/>
	<path class="st0" d="M1760.791,152.332v6.462c0,1.806-1.141,2.946-3.041,2.946h-27.654v5.322c0,6.842,3.896,10.739,10.834,10.739
		h3.42c6.367,0,8.078-2.376,10.834-5.607c0.57-0.76,1.045-0.95,1.996-0.285l1.805,1.331c0.951,0.665,0.951,1.235,0.381,1.996
		c-3.422,4.181-6.747,8.268-15.016,8.268h-3.42c-10.169,0-17.106-6.652-17.106-17.105v-13.97c0-11.024,6.938-17.296,17.106-17.296
		h3.42C1752.713,135.131,1760.791,141.308,1760.791,152.332z M1754.613,152.236c0-7.697-4.371-11.403-10.264-11.403h-3.42
		c-6.938,0-10.834,3.706-10.834,11.403v4.277h24.518V152.236z"/>
	<path class="st0" d="M1816.191,151.952v29.65c0,0.95-0.475,1.425-1.426,1.425h-3.23c-0.951,0-1.426-0.475-1.426-1.425v-29.65
		c0-7.413-1.9-11.119-9.408-11.119h-1.521c-7.223,0-11.403,4.276-12.829,6.747v34.021c0,0.95-0.476,1.425-1.426,1.425h-3.23
		c-0.951,0-1.426-0.475-1.426-1.425v-44.665c0-0.95,0.475-1.426,1.426-1.426h3.23c0.95,0,1.426,0.476,1.426,1.426v5.702
		c3.23-4.846,8.268-7.507,14.254-7.507h0.761C1812.39,135.131,1816.191,141.118,1816.191,151.952z"/>
	<path class="st0" d="M1872.636,152.332v6.462c0,1.806-1.141,2.946-3.041,2.946h-27.654v5.322c0,6.842,3.896,10.739,10.834,10.739
		h3.42c6.367,0,8.078-2.376,10.834-5.607c0.57-0.76,1.045-0.95,1.996-0.285l1.805,1.331c0.951,0.665,0.951,1.235,0.381,1.996
		c-3.422,4.181-6.747,8.268-15.016,8.268h-3.42c-10.169,0-17.106-6.652-17.106-17.105v-13.97c0-11.024,6.938-17.296,17.106-17.296
		h3.42C1864.558,135.131,1872.636,141.308,1872.636,152.332z M1866.459,152.236c0-7.697-4.371-11.403-10.264-11.403h-3.42
		c-6.938,0-10.834,3.706-10.834,11.403v4.277h24.518V152.236z"/>
	<path class="st0" d="M1892.114,166.586v-29.65c0-0.95,0.476-1.426,1.426-1.426h3.231c0.949,0,1.425,0.476,1.425,1.426v29.65
		c0,7.413,1.901,11.119,9.408,11.119h1.521c7.223,0,11.404-4.372,12.83-6.747v-34.021c0-0.95,0.475-1.426,1.425-1.426h3.231
		c0.95,0,1.426,0.476,1.426,1.426v44.665c0,0.95-0.476,1.425-1.426,1.425h-3.231c-0.95,0-1.425-0.475-1.425-1.425v-5.702
		c-3.231,4.847-8.269,7.508-14.256,7.508h-0.76C1895.916,183.407,1892.114,177.42,1892.114,166.586z"/>
	<path class="st0" d="M1973.933,141.593c-1.426-0.476-2.947-0.76-4.942-0.76h-1.14c-7.223,0-11.404,4.276-12.83,6.747v34.021
		c0,0.95-0.475,1.425-1.426,1.425h-3.23c-0.95,0-1.426-0.475-1.426-1.425v-44.665c0-0.95,0.476-1.426,1.426-1.426h3.23
		c0.951,0,1.426,0.476,1.426,1.426v5.702c3.422-5.131,8.648-7.507,15.016-7.507c2.186,0,4.371,0.285,6.271,0.95
		c0.951,0.38,1.236,1.045,0.761,1.901l-1.235,2.851C1975.453,141.688,1974.788,141.878,1973.933,141.593z"/>
	<path class="st0" d="M2028.669,169.723c0,9.883-7.127,13.779-16.345,13.779h-3.707c-9.027,0-14.635-4.276-15.965-11.974
		c-0.19-0.855,0.285-1.425,1.235-1.425h3.517c0.854,0,1.425,0.475,1.615,1.331c1.141,4.372,3.896,6.367,9.598,6.367h3.802
		c5.987,0,10.168-1.901,10.168-8.078c0-6.367-4.847-7.318-12.069-8.078c-10.928-1.045-17.2-3.231-17.2-13.494
		c0-9.218,6.177-12.924,15.585-12.924h2.946c9.028,0,15.11,4.276,15.49,12.829c0,0.95-0.285,1.521-1.331,1.521h-3.23
		c-0.95,0-1.521-0.475-1.711-1.521c-0.475-4.942-3.516-7.317-9.408-7.317h-2.565c-6.082,0-9.788,1.9-9.788,7.413
		c0,5.892,3.991,7.222,11.213,7.982C2021.066,157.368,2028.669,158.984,2028.669,169.723z"/>
	<path class="st0" d="M2095.851,141.213v27.084c0,6.557,1.711,9.123,7.697,9.313c0.95,0,1.33,0.666,1.33,1.521l-0.095,2.661
		c0,0.855-0.57,1.425-1.615,1.425c-10.073-0.19-13.399-5.037-13.399-14.92v-27.084h-5.037c-0.95,0-1.426-0.475-1.426-1.425v-2.756
		c0-1.045,0.476-1.521,1.426-1.521h5.037v-5.702c0-0.95,0.475-1.425,1.426-1.425h3.23c0.95,0,1.426,0.475,1.426,1.425v5.702h7.602
		c1.046,0,1.521,0.476,1.521,1.426v2.851c0,0.95-0.476,1.425-1.426,1.425H2095.851z"/>
	<path class="st0" d="M2160.565,152.427v13.685c0,10.833-6.747,17.391-16.82,17.391h-4.276c-10.169,0-16.916-6.557-16.916-17.391
		v-13.685c0-11.024,6.747-17.296,16.916-17.296h4.276C2153.818,135.131,2160.565,141.403,2160.565,152.427z M2154.483,152.236
		c0-7.697-3.896-11.403-10.738-11.403h-4.276c-6.938,0-10.834,3.706-10.834,11.403v14.445c0,7.222,3.896,11.119,10.834,11.119h4.276
		c6.842,0,10.738-3.896,10.738-11.119V152.236z"/>
	<path class="st0" d="M2246.943,148.815c-1.045-5.417-4.562-7.888-9.693-7.888h-3.516c-6.938,0-10.834,3.706-10.834,11.309v14.825
		c0,6.842,3.896,10.739,10.834,10.739h3.421c6.177,0,7.983-2.471,10.739-5.797c0.664-0.76,1.234-0.76,2.09-0.19l2.091,1.521
		c0.855,0.57,0.855,1.235,0.285,1.996c-3.421,4.182-6.462,8.173-15.205,8.173h-3.421c-10.168,0-17.105-6.652-17.105-17.105v-13.97
		c0-10.929,6.938-17.201,17.105-17.201h3.516c8.363,0,14.445,5.037,15.871,13.399c0.095,1.045-0.381,1.615-1.331,1.615h-3.326
		C2247.609,150.241,2247.134,149.766,2246.943,148.815z"/>
	<path class="st0" d="M2272.219,166.586v-29.65c0-0.95,0.475-1.426,1.426-1.426h3.23c0.95,0,1.426,0.476,1.426,1.426v29.65
		c0,7.413,1.9,11.119,9.408,11.119h1.52c7.223,0,11.404-4.372,12.83-6.747v-34.021c0-0.95,0.475-1.426,1.426-1.426h3.23
		c0.951,0,1.426,0.476,1.426,1.426v44.665c0,0.95-0.475,1.425-1.426,1.425h-3.23c-0.951,0-1.426-0.475-1.426-1.425v-5.702
		c-3.231,4.847-8.268,7.508-14.255,7.508h-0.761C2276.019,183.407,2272.219,177.42,2272.219,166.586z"/>
	<path class="st0" d="M2363.255,169.723c0,9.883-7.127,13.779-16.345,13.779h-3.707c-9.027,0-14.635-4.276-15.965-11.974
		c-0.19-0.855,0.285-1.425,1.235-1.425h3.517c0.854,0,1.425,0.475,1.615,1.331c1.141,4.372,3.896,6.367,9.598,6.367h3.802
		c5.987,0,10.168-1.901,10.168-8.078c0-6.367-4.847-7.318-12.069-8.078c-10.928-1.045-17.2-3.231-17.2-13.494
		c0-9.218,6.177-12.924,15.585-12.924h2.946c9.028,0,15.11,4.276,15.49,12.829c0,0.95-0.285,1.521-1.331,1.521h-3.23
		c-0.95,0-1.521-0.475-1.711-1.521c-0.475-4.942-3.516-7.317-9.408-7.317h-2.565c-6.082,0-9.788,1.9-9.788,7.413
		c0,5.892,3.991,7.222,11.213,7.982C2355.652,157.368,2363.255,158.984,2363.255,169.723z"/>
	<path class="st0" d="M2392.427,141.213v27.084c0,6.557,1.711,9.123,7.698,9.313c0.949,0,1.33,0.666,1.33,1.521l-0.096,2.661
		c0,0.855-0.57,1.425-1.615,1.425c-10.073-0.19-13.399-5.037-13.399-14.92v-27.084h-5.036c-0.951,0-1.426-0.475-1.426-1.425v-2.756
		c0-1.045,0.475-1.521,1.426-1.521h5.036v-5.702c0-0.95,0.476-1.425,1.426-1.425h3.231c0.949,0,1.425,0.475,1.425,1.425v5.702h7.603
		c1.045,0,1.521,0.476,1.521,1.426v2.851c0,0.95-0.476,1.425-1.425,1.425H2392.427z"/>
	<path class="st0" d="M2457.141,152.427v13.685c0,10.833-6.747,17.391-16.82,17.391h-4.276c-10.169,0-16.916-6.557-16.916-17.391
		v-13.685c0-11.024,6.747-17.296,16.916-17.296h4.276C2450.394,135.131,2457.141,141.403,2457.141,152.427z M2451.059,152.236
		c0-7.697-3.896-11.403-10.738-11.403h-4.276c-6.938,0-10.834,3.706-10.834,11.403v14.445c0,7.222,3.896,11.119,10.834,11.119h4.276
		c6.842,0,10.738-3.896,10.738-11.119V152.236z"/>
	<path class="st0" d="M2542.382,151.952v29.65c0,0.95-0.476,1.425-1.425,1.425h-3.232c-0.949,0-1.425-0.475-1.425-1.425v-29.65
		c0-7.413-1.995-11.119-9.408-11.119h-1.521c-7.223,0-11.404,4.276-12.829,6.747v34.021c0,0.95-0.476,1.425-1.426,1.425h-3.231
		c-0.949,0-1.425-0.475-1.425-1.425v-29.65c0-7.413-1.901-11.119-9.408-11.119h-1.521c-7.223,0-11.404,4.276-12.829,6.747v34.021
		c0,0.95-0.476,1.425-1.426,1.425h-3.231c-0.949,0-1.425-0.475-1.425-1.425v-44.665c0-0.95,0.476-1.426,1.425-1.426h3.231
		c0.95,0,1.426,0.476,1.426,1.426v5.702c3.231-4.846,8.268-7.507,14.255-7.507h0.76c7.982,0,12.164,3.136,13.875,8.933l0.95-1.426
		c3.231-4.846,8.268-7.507,14.255-7.507h0.76C2538.58,135.131,2542.382,141.118,2542.382,151.952z"/>
	<path class="st0" d="M2598.827,152.332v6.462c0,1.806-1.141,2.946-3.041,2.946h-27.655v5.322c0,6.842,3.897,10.739,10.834,10.739
		h3.422c6.366,0,8.077-2.376,10.833-5.607c0.57-0.76,1.046-0.95,1.996-0.285l1.806,1.331c0.95,0.665,0.95,1.235,0.38,1.996
		c-3.421,4.181-6.747,8.268-15.015,8.268h-3.422c-10.168,0-17.105-6.652-17.105-17.105v-13.97c0-11.024,6.938-17.296,17.105-17.296
		h3.422C2590.749,135.131,2598.827,141.308,2598.827,152.332z M2592.649,152.236c0-7.697-4.371-11.403-10.263-11.403h-3.422
		c-6.937,0-10.834,3.706-10.834,11.403v4.277h24.519V152.236z"/>
	<path class="st0" d="M2643.299,141.593c-1.426-0.476-2.946-0.76-4.941-0.76h-1.141c-7.223,0-11.404,4.276-12.829,6.747v34.021
		c0,0.95-0.476,1.425-1.426,1.425h-3.231c-0.95,0-1.425-0.475-1.425-1.425v-44.665c0-0.95,0.475-1.426,1.425-1.426h3.231
		c0.95,0,1.426,0.476,1.426,1.426v5.702c3.421-5.131,8.647-7.507,15.015-7.507c2.186,0,4.372,0.285,6.272,0.95
		c0.95,0.38,1.235,1.045,0.76,1.901l-1.235,2.851C2644.819,141.688,2644.154,141.878,2643.299,141.593z"/>
	<path class="st0" d="M2698.035,169.723c0,9.883-7.127,13.779-16.345,13.779h-3.707c-9.027,0-14.635-4.276-15.965-11.974
		c-0.19-0.855,0.285-1.425,1.235-1.425h3.516c0.855,0,1.426,0.475,1.616,1.331c1.141,4.372,3.896,6.367,9.598,6.367h3.802
		c5.987,0,10.168-1.901,10.168-8.078c0-6.367-4.847-7.318-12.068-8.078c-10.929-1.045-17.201-3.231-17.201-13.494
		c0-9.218,6.177-12.924,15.585-12.924h2.946c9.028,0,15.11,4.276,15.49,12.829c0,0.95-0.285,1.521-1.331,1.521h-3.23
		c-0.95,0-1.521-0.475-1.711-1.521c-0.475-4.942-3.516-7.317-9.408-7.317h-2.565c-6.082,0-9.788,1.9-9.788,7.413
		c0,5.892,3.991,7.222,11.214,7.982C2690.432,157.368,2698.035,158.984,2698.035,169.723z"/>
</g>
</svg>