<!-- Generator: Adobe Illustrator 21.1.0, SVG Export Plug-In  -->
<svg version="1.1"
	 xmlns="http://www.w3.org/2000/svg" xmlns:xlink="http://www.w3.org/1999/xlink" xmlns:a="http://ns.adobe.com/AdobeSVGViewerExtensions/3.0/"
	 x="0px" y="0px" width="2024.988px" height="701.197px" viewBox="0 0 2024.988 701.197"
	 style="enable-background:new 0 0 2024.988 701.197;" xml:space="preserve">
<style type="text/css">
	.st0{fill:#FFFFFF;}
	.st1{opacity:0.27;}
</style>
<defs>
</defs>
<g>
	<g>
		<path class="st0" d="M371.292,322.741l-15.585,63.671c-0.285,1.045-1.046,1.425-1.9,1.425h-3.326c-0.855,0-1.521-0.38-1.807-1.425
			l-16.915-55.119l-16.821,55.119c-0.285,1.045-0.949,1.425-1.805,1.425h-3.422c-0.855,0-1.615-0.38-1.805-1.425l-15.586-63.671
			c-0.189-0.95,0.19-1.426,1.141-1.426h3.706c0.95,0,1.521,0.476,1.711,1.426l12.829,54.833l16.535-54.833
			c0.285-0.95,0.855-1.426,1.807-1.426h3.516c0.95,0,1.521,0.476,1.806,1.426l16.44,54.833l12.829-54.833
			c0.19-0.95,0.761-1.426,1.71-1.426h3.802C371.102,321.316,371.482,321.791,371.292,322.741z"/>
		<path class="st0" d="M438.475,327.113v25.374h23.188c0.95,0,1.426,0.475,1.426,1.425v2.946c0,0.95-0.476,1.426-1.426,1.426
			h-23.188v23.758h30.695c0.949,0,1.425,0.475,1.425,1.425v2.946c0,0.95-0.476,1.425-1.425,1.425h-35.543
			c-0.949,0-1.425-0.475-1.425-1.425v-63.671c0-0.95,0.476-1.426,1.425-1.426h35.067c0.95,0,1.425,0.476,1.425,1.426v2.946
			c0,0.951-0.475,1.426-1.425,1.426H438.475z"/>
		<path class="st0" d="M654.472,366.931v3.517c0,12.734-6.747,17.391-18.722,17.391h-20.432h-2.186c-0.95,0-1.426-0.475-1.426-1.425
			v-63.671c0-0.95,0.476-1.426,1.426-1.426h3.421h19.102c10.929,0,16.061,5.322,16.061,16.916c0,6.367-1.995,10.929-5.321,13.685
			C651.336,354.292,654.472,358.948,654.472,366.931z M635.655,327.113h-17.676v22.712h17.676c7.698,0,9.788-2.946,9.788-11.594
			C645.443,329.489,643.354,327.113,635.655,327.113z M648.199,366.931c0-9.788-3.706-11.784-12.449-11.784h-17.771v26.894h17.771
			c8.743,0,12.449-1.806,12.449-11.594V366.931z"/>
		<path class="st0" d="M761.473,322.741v45.805c0,13.114-6.652,19.767-19.102,19.767h-7.032c-12.449,0-19.101-6.652-19.101-19.767
			v-45.805c0-0.855,0.569-1.426,1.52-1.426h3.326c0.855,0,1.426,0.57,1.426,1.426v45.805c0,9.503,3.991,13.97,12.829,13.97h7.032
			c8.838,0,12.83-4.466,12.83-13.97v-45.805c0-0.855,0.57-1.426,1.52-1.426h3.326C760.902,321.316,761.473,321.886,761.473,322.741z
			"/>
		<path class="st0" d="M826.564,321.316h3.421c0.95,0,1.425,0.476,1.425,1.426v63.671c0,0.95-0.475,1.425-1.425,1.425h-3.421
			c-0.951,0-1.426-0.475-1.426-1.425v-63.671C825.139,321.791,825.613,321.316,826.564,321.316z"/>
		<path class="st0" d="M930.146,383.467v2.946c0,0.95-0.476,1.425-1.425,1.425h-32.217c-0.949,0-1.425-0.475-1.425-1.425v-63.671
			c0-0.95,0.476-1.426,1.425-1.426h3.422c0.95,0,1.426,0.476,1.426,1.426v59.3h27.369
			C929.67,382.041,930.146,382.516,930.146,383.467z"/>
		<path class="st0" d="M1034.582,340.227v28.7c0,12.639-6.748,18.911-18.531,18.911h-20.907h-2.28c-0.951,0-1.426-0.475-1.426-1.425
			v-63.671c0-0.95,0.475-1.426,1.426-1.426h3.421h19.767C1027.834,321.316,1034.582,327.588,1034.582,340.227z M1028.31,340.227
			c0-9.408-3.706-13.114-12.259-13.114h-18.342v54.928h18.342c8.553,0,12.259-3.706,12.259-13.114V340.227z"/>
		<path class="st0" d="M1218.935,366.931v3.517c0,12.734-6.747,17.391-18.722,17.391h-20.432h-2.186
			c-0.95,0-1.426-0.475-1.426-1.425v-63.671c0-0.95,0.476-1.426,1.426-1.426h3.421h19.102c10.929,0,16.061,5.322,16.061,16.916
			c0,6.367-1.996,10.929-5.321,13.685C1215.799,354.292,1218.935,358.948,1218.935,366.931z M1200.118,327.113h-17.676v22.712
			h17.676c7.698,0,9.788-2.946,9.788-11.594C1209.906,329.489,1207.816,327.113,1200.118,327.113z M1212.662,366.931
			c0-9.788-3.706-11.784-12.449-11.784h-17.771v26.894h17.771c8.743,0,12.449-1.806,12.449-11.594V366.931z"/>
		<path class="st0" d="M1323.75,387.838h-3.611c-0.761,0-1.426-0.285-1.711-1.045l-10.073-22.522
			c-1.141,0.095-2.376,0.19-3.611,0.19h-17.771v21.953c0,0.95-0.476,1.425-1.426,1.425h-3.421c-0.95,0-1.426-0.475-1.426-1.425
			v-63.671c0-0.95,0.476-1.426,1.426-1.426h3.421h19.196c11.879,0,18.627,6.272,18.627,19.007v5.131
			c0,8.743-3.231,14.54-9.123,17.201l10.644,23.378C1325.365,387.173,1324.891,387.838,1323.75,387.838z M1304.743,358.663
			c8.648,0,12.354-3.706,12.354-13.209v-5.131c0-9.503-3.706-13.209-12.354-13.209h-17.771v31.55H1304.743z"/>
		<path class="st0" d="M1429.61,387.838h-3.517c-0.95,0-1.33-0.475-1.711-1.521l-4.181-13.97h-26.419l-4.182,13.97
			c-0.285,1.045-0.761,1.521-1.711,1.521h-3.516c-0.95,0-1.426-0.475-1.141-1.521l19.672-63.481c0.285-0.95,0.95-1.521,1.806-1.521
			h4.466c0.855,0,1.521,0.57,1.806,1.521l19.767,63.481C1431.13,387.363,1430.561,387.838,1429.61,387.838z M1418.491,366.836
			l-11.499-37.918l-11.499,37.918H1418.491z"/>
		<path class="st0" d="M1534.71,322.741v63.671c0,0.95-0.475,1.425-1.426,1.425h-6.462c-0.76,0-1.33-0.285-1.71-1.045l-27.56-57.875
			v57.495c0,0.95-0.476,1.425-1.426,1.425h-3.421c-0.95,0-1.426-0.475-1.426-1.425v-63.671c0-0.95,0.476-1.426,1.426-1.426h6.462
			c0.761,0,1.331,0.285,1.711,1.045l27.56,57.779v-57.399c0-0.95,0.475-1.426,1.425-1.426h3.421
			C1534.235,321.316,1534.71,321.791,1534.71,322.741z"/>
		<path class="st0" d="M1641.521,340.227v28.7c0,12.639-6.747,18.911-18.531,18.911h-20.906h-2.281c-0.95,0-1.426-0.475-1.426-1.425
			v-63.671c0-0.95,0.476-1.426,1.426-1.426h3.421h19.767C1634.773,321.316,1641.521,327.588,1641.521,340.227z M1635.249,340.227
			c0-9.408-3.707-13.114-12.26-13.114h-18.341v54.928h18.341c8.553,0,12.26-3.706,12.26-13.114V340.227z"/>
		<path class="st0" d="M1745.48,368.832c0,13.02-6.747,19.481-19.102,19.481h-5.892c-11.784,0-18.531-6.177-19.102-18.341
			c0-0.95,0.57-1.425,1.426-1.425h3.326c0.95,0,1.521,0.475,1.521,1.425c0.38,8.743,4.181,12.544,12.829,12.544h5.892
			c9.123,0,12.829-3.896,12.829-13.685c0-9.218-6.937-10.644-14.35-12.544l-3.896-0.95c-10.833-2.566-18.721-5.322-18.721-17.391
			c0-12.259,7.032-17.106,19.102-17.106h3.801c11.689,0,18.057,6.177,18.626,17.961c0,1.045-0.569,1.521-1.521,1.521h-3.326
			c-0.854,0-1.425-0.476-1.425-1.521c-0.38-8.458-3.896-12.164-12.354-12.164h-3.801c-8.838,0-12.83,2.186-12.83,11.309
			c0,8.933,5.037,9.693,12.449,11.404l3.896,0.95C1735.217,352.866,1745.48,356.193,1745.48,368.832z"/>
	</g>
	<g class="st1">
		<path class="st0" d="M210.961,118.792h77.075c3.973,0,5.959,1.987,5.959,5.959v34.962c0,3.973-1.986,5.959-5.959,5.959h-77.075
			v108.462c0,3.973-1.986,5.959-5.96,5.959h-40.524c-3.973,0-5.959-1.986-5.959-5.959V7.946c0-3.973,1.986-5.959,5.959-5.959
			h150.973c3.974,0,5.96,1.986,5.96,5.959v34.962c0,3.973-1.986,5.959-5.96,5.959H210.961V118.792z"/>
		<path class="st0" d="M555.809,274.532c0,3.712-2.52,5.562-7.548,5.562h-37.743c-5.035,0-8.48-2.117-10.33-6.357l-35.757-83.432
			h-52.84v83.83c0,3.973-1.986,5.959-5.96,5.959h-40.524c-3.973,0-5.959-1.986-5.959-5.959V7.946c0-3.973,1.986-5.959,5.959-5.959
			h40.524h60.786c26.75,0,46.813,6.953,60.19,20.858c13.372,13.905,20.063,33.311,20.063,58.204v29.797
			c0,15.364-2.65,28.804-7.945,40.326c-5.302,11.521-13.248,20.597-23.838,27.215l40.127,92.172
			C555.542,272.682,555.809,274.004,555.809,274.532z M411.591,143.027h54.826c10.33,0,17.544-2.248,21.653-6.754
			c4.103-4.5,6.158-12.974,6.158-25.427V81.048c0-12.446-2.056-20.92-6.158-25.427c-4.109-4.5-11.323-6.754-21.653-6.754h-54.826
			V143.027z"/>
		<path class="st0" d="M776.109,22.249c13.371,14.837,20.063,34.962,20.063,60.389v116.805c0,25.427-6.692,45.559-20.063,60.389
			c-13.378,14.836-33.311,22.249-59.793,22.249h-42.511c-26.488,0-46.422-7.412-59.793-22.249
			c-13.378-14.83-20.063-34.962-20.063-60.389V82.638c0-25.427,6.686-45.552,20.063-60.389C627.384,7.418,647.317,0,673.806,0
			h42.511C742.799,0,762.731,7.418,776.109,22.249z M743.729,82.638c0-13.241-2.123-22.509-6.356-27.811
			c-4.24-5.295-11.261-7.946-21.057-7.946h-42.511c-9.803,0-16.823,2.651-21.057,7.946c-4.24,5.301-6.357,14.569-6.357,27.811
			v116.805c0,13.508,2.117,22.844,6.357,28.009c4.233,5.165,11.254,7.747,21.057,7.747h42.511c9.796,0,16.816-2.583,21.057-7.747
			c4.233-5.165,6.356-14.501,6.356-28.009V82.638z"/>
		<path class="st0" d="M1090.564,7.946v266.188c0,3.973-1.986,5.959-5.959,5.959h-40.524c-3.973,0-5.96-1.986-5.96-5.959V92.173
			l-45.688,181.961c-1.062,3.973-3.576,5.959-7.549,5.959h-35.359c-3.712,0-6.227-1.986-7.549-5.959L896.287,92.173v181.961
			c0,3.973-1.986,5.959-5.96,5.959h-40.524c-3.973,0-5.959-1.986-5.959-5.959V7.946c0-3.973,1.986-5.959,5.959-5.959h59.992
			c4.233,0,6.885,1.986,7.946,5.959l49.265,179.18l49.662-179.18c1.322-3.973,3.973-5.959,7.945-5.959h59.992
			C1088.578,1.987,1090.564,3.973,1090.564,7.946z"/>
		<path class="st0" d="M1426.669,7.946v34.962c0,3.973-1.986,5.959-5.96,5.959h-55.224v225.267c0,3.973-1.986,5.959-5.96,5.959
			h-40.523c-3.974,0-5.96-1.986-5.96-5.959V48.868h-55.621c-3.974,0-5.96-1.987-5.96-5.959V7.946c0-3.973,1.986-5.959,5.96-5.959
			h102.104h61.184C1424.683,1.987,1426.669,3.973,1426.669,7.946z"/>
		<path class="st0" d="M1651.536,7.946v266.188c0,3.973-1.986,5.959-5.959,5.959h-40.524c-3.973,0-5.96-1.986-5.96-5.959V165.672
			h-78.267v108.462c0,3.973-1.986,5.959-5.96,5.959h-40.524c-3.973,0-5.959-1.986-5.959-5.959V7.946
			c0-3.973,1.986-5.959,5.959-5.959h40.524c3.974,0,5.96,1.986,5.96,5.959v110.845h78.267V7.946c0-3.973,1.987-5.959,5.96-5.959
			h40.524C1649.55,1.987,1651.536,3.973,1651.536,7.946z"/>
		<path class="st0" d="M1755.623,48.868v69.924h79.856c3.973,0,5.959,1.987,5.959,5.959v34.962c0,3.973-1.986,5.959-5.959,5.959
			h-79.856v67.541h106.872c3.974,0,5.96,1.986,5.96,5.959v34.962c0,3.973-1.986,5.959-5.96,5.959h-153.356
			c-3.973,0-5.959-1.986-5.959-5.959V7.946c0-3.973,1.986-5.959,5.959-5.959h151.37c3.973,0,5.96,1.986,5.96,5.959v34.962
			c0,3.973-1.987,5.959-5.96,5.959H1755.623z"/>
		<path class="st0" d="M197.854,558.965v59.595c0,25.427-6.692,45.559-20.063,60.389c-13.378,14.836-33.312,22.249-59.793,22.249
			H79.856c-26.488,0-46.422-7.412-59.793-22.249C6.686,664.118,0,643.986,0,618.56V501.754c0-25.427,6.686-45.552,20.063-60.389
			c13.371-14.83,33.305-22.249,59.793-22.249h38.141c24.893,0,44.031,6.692,57.409,20.063c13.371,13.378,20.721,31.852,22.05,55.423
			v1.192c0,4.768-2.651,7.151-7.946,7.151h-35.757c-5.301,0-8.213-2.781-8.74-8.343c-0.795-10.59-3.314-18.009-7.549-22.249
			c-4.239-4.234-10.727-6.357-19.467-6.357H79.856c-9.803,0-16.823,2.651-21.057,7.946c-4.24,5.301-6.357,14.569-6.357,27.811
			V618.56c0,13.508,2.117,22.844,6.357,28.009c4.233,5.165,11.254,7.747,21.057,7.747h38.141c9.795,0,16.816-2.583,21.057-7.747
			c4.233-5.165,6.356-14.501,6.356-28.009v-24.632h-26.222c-5.562,0-8.343-2.781-8.343-8.343v-26.619
			c0-5.562,2.78-8.343,8.343-8.343h70.321C195.072,550.622,197.854,553.403,197.854,558.965z"/>
		<path class="st0" d="M442.185,693.648c0,3.712-2.52,5.562-7.548,5.562h-37.743c-5.035,0-8.48-2.117-10.33-6.357l-35.757-83.432
			h-52.84v83.83c0,3.973-1.986,5.959-5.96,5.959h-40.524c-3.973,0-5.959-1.986-5.959-5.959V427.063c0-3.973,1.986-5.959,5.959-5.959
			h40.524h60.786c26.75,0,46.813,6.953,60.19,20.858c13.372,13.905,20.063,33.311,20.063,58.204v29.797
			c0,15.364-2.65,28.804-7.945,40.326c-5.302,11.521-13.248,20.597-23.838,27.215l40.127,92.172
			C441.918,691.798,442.185,693.121,442.185,693.648z M297.967,562.144h54.826c10.33,0,17.544-2.248,21.653-6.754
			c4.103-4.5,6.158-12.974,6.158-25.427v-29.797c0-12.446-2.056-20.92-6.158-25.427c-4.109-4.5-11.323-6.754-21.653-6.754h-54.826
			V562.144z"/>
		<path class="st0" d="M662.484,441.365c13.371,14.837,20.063,34.962,20.063,60.389V618.56c0,25.427-6.692,45.559-20.063,60.389
			c-13.378,14.836-33.311,22.249-59.793,22.249h-42.511c-26.488,0-46.422-7.412-59.793-22.249
			c-13.378-14.83-20.063-34.962-20.063-60.389V501.754c0-25.427,6.686-45.552,20.063-60.389
			c13.371-14.83,33.305-22.249,59.793-22.249h42.511C629.174,419.117,649.106,426.535,662.484,441.365z M630.104,501.754
			c0-13.241-2.123-22.509-6.356-27.811c-4.24-5.295-11.261-7.946-21.057-7.946h-42.511c-9.803,0-16.823,2.651-21.057,7.946
			c-4.24,5.301-6.357,14.569-6.357,27.811V618.56c0,13.508,2.117,22.844,6.357,28.009c4.233,5.165,11.254,7.747,21.057,7.747h42.511
			c9.796,0,16.816-2.583,21.057-7.747c4.233-5.165,6.356-14.501,6.356-28.009V501.754z"/>
		<path class="st0" d="M932.442,429.447V618.56c0,25.96-6.624,46.223-19.865,60.786c-13.247,14.569-33.242,21.851-59.991,21.851
			h-42.113c-26.756,0-46.819-7.282-60.19-21.851c-13.378-14.563-20.063-34.826-20.063-60.786V429.447
			c0-5.562,2.781-8.343,8.343-8.343h35.757c5.562,0,8.344,2.781,8.344,8.343V618.56c0,12.98,2.185,22.187,6.555,27.612
			c4.371,5.432,11.454,8.145,21.256,8.145h42.113c9.796,0,16.816-2.713,21.057-8.145c4.233-5.425,6.356-14.632,6.356-27.612V429.447
			c0-5.562,2.781-8.343,8.344-8.343H924.1C929.661,421.104,932.442,423.884,932.442,429.447z"/>
		<path class="st0" d="M1179.558,427.063v266.188c0,3.973-1.986,5.959-5.96,5.959h-52.045c-3.179,0-5.562-1.453-7.151-4.37
			l-77.87-183.153v181.564c0,3.973-1.986,5.959-5.96,5.959h-40.524c-3.973,0-5.959-1.986-5.959-5.959V427.063
			c0-3.973,1.986-5.959,5.959-5.959h52.443c3.439,0,5.823,1.458,7.151,4.37l77.473,182.756V427.063c0-3.973,1.986-5.959,5.96-5.959
			h40.523C1177.571,421.104,1179.558,423.09,1179.558,427.063z"/>
		<path class="st0" d="M1400.849,441.763c13.241,13.775,19.864,32.715,19.864,56.813v122.367c0,24.372-6.623,43.504-19.864,57.409
			c-13.247,13.905-32.846,20.858-58.8,20.858h-79.856h-25.03c-3.973,0-5.959-1.986-5.959-5.959V427.063
			c0-3.973,1.986-5.959,5.959-5.959h40.524h64.362C1368.003,421.104,1387.602,427.994,1400.849,441.763z M1368.271,498.576
			c0-11.652-1.986-19.667-5.96-24.037c-3.973-4.37-10.727-6.555-20.262-6.555h-58.402V652.33h58.402
			c9.535,0,16.289-2.185,20.262-6.556c3.974-4.37,5.96-12.645,5.96-24.831V498.576z"/>
		<path class="st0" d="M1785.82,429.447V618.56c0,25.96-6.624,46.223-19.865,60.786c-13.247,14.569-33.242,21.851-59.991,21.851
			h-42.113c-26.756,0-46.819-7.282-60.19-21.851c-13.378-14.563-20.063-34.826-20.063-60.786V429.447
			c0-5.562,2.781-8.343,8.343-8.343h35.757c5.562,0,8.344,2.781,8.344,8.343V618.56c0,12.98,2.185,22.187,6.555,27.612
			c4.371,5.432,11.454,8.145,21.256,8.145h42.113c9.796,0,16.816-2.713,21.057-8.145c4.233-5.425,6.356-14.632,6.356-27.612V429.447
			c0-5.562,2.781-8.343,8.344-8.343h35.757C1783.039,421.104,1785.82,423.884,1785.82,429.447z"/>
		<path class="st0" d="M2005.124,441.961c13.241,13.905,19.864,33.311,19.864,58.204v29.797c0,24.899-6.691,44.367-20.063,58.402
			c-13.377,14.042-33.44,21.057-60.19,21.057h-54.826v83.83c0,3.973-1.986,5.959-5.96,5.959h-40.524
			c-3.973,0-5.959-1.986-5.959-5.959V427.063c0-3.973,1.986-5.959,5.959-5.959h40.524h60.786
			C1971.751,421.104,1991.876,428.056,2005.124,441.961z M1972.546,500.165c0-12.446-2.056-20.92-6.158-25.427
			c-4.109-4.5-11.323-6.754-21.653-6.754h-54.826v94.159h54.826c10.33,0,17.544-2.248,21.653-6.754
			c4.103-4.5,6.158-12.974,6.158-25.427V500.165z"/>
	</g>
</g>
</svg>