<!-- Generator: Adobe Illustrator 21.1.0, SVG Export Plug-In  -->
<svg version="1.1"
	 xmlns="http://www.w3.org/2000/svg" xmlns:xlink="http://www.w3.org/1999/xlink" xmlns:a="http://ns.adobe.com/AdobeSVGViewerExtensions/3.0/"
	 x="0px" y="0px" width="985.447px" height="118.51px" viewBox="0 0 985.447 118.51"
	 style="enable-background:new 0 0 985.447 118.51;" xml:space="preserve">
<style type="text/css">
	.st0{fill:#FFFFFF;}
</style>
<defs>
</defs>
<g>
	<path class="st0" d="M96.478,3.338v111.833c0,1.669-0.835,2.504-2.504,2.504h-3.505c-1.67,0-2.504-0.834-2.504-2.504V8.513
		L53.413,115.172c-0.501,1.669-1.669,2.504-3.172,2.504h-4.006c-1.502,0-2.67-0.834-3.171-2.504L8.513,8.513v106.659
		c0,1.669-0.835,2.504-2.504,2.504H2.504c-1.669,0-2.504-0.834-2.504-2.504V3.338c0-1.669,0.835-2.504,2.504-2.504h9.514
		c1.67,0,2.838,0.835,3.339,2.504L48.238,104.99L81.288,3.338c0.501-1.669,1.669-2.504,3.338-2.504h9.348
		C95.643,0.834,96.478,1.669,96.478,3.338z"/>
	<path class="st0" d="M228.17,34.719v49.073c0,23.368-12.352,34.718-33.55,34.718h-11.184c-21.365,0-33.55-11.35-33.55-34.718
		V34.719C149.887,11.351,162.071,0,183.437,0h11.184C215.818,0,228.17,11.351,228.17,34.719z M219.657,34.719
		c0-18.528-7.345-26.707-25.037-26.707h-11.184c-17.693,0-25.037,8.179-25.037,26.707v49.073c0,18.527,7.344,26.707,25.037,26.707
		h11.184c17.692,0,25.037-8.179,25.037-26.707V34.719z"/>
	<path class="st0" d="M358.194,34.719v49.073c0,23.368-12.352,34.718-33.55,34.718h-11.184c-21.365,0-33.55-11.35-33.55-34.718
		V34.719C279.911,11.351,292.096,0,313.461,0h11.184C345.843,0,358.194,11.351,358.194,34.719z M349.682,34.719
		c0-18.528-7.345-26.707-25.037-26.707h-11.184c-17.693,0-25.037,8.179-25.037,26.707v49.073c0,18.527,7.344,26.707,25.037,26.707
		h11.184c17.692,0,25.037-8.179,25.037-26.707V34.719z"/>
	<path class="st0" d="M486.55,3.338v111.833c0,1.669-0.835,2.504-2.504,2.504h-8.847c-1.335,0-2.337-0.501-3.004-1.836L420.117,8.68
		v106.492c0,1.669-0.835,2.504-2.504,2.504h-3.505c-1.669,0-2.504-0.834-2.504-2.504V3.338c0-1.669,0.835-2.504,2.504-2.504h8.847
		c1.335,0,2.337,0.501,3.004,1.836l52.078,107.16V3.338c0-1.669,0.834-2.504,2.504-2.504h3.505
		C485.715,0.834,486.55,1.669,486.55,3.338z"/>
	<path class="st0" d="M614.07,84.292c0,23.368-12.185,34.218-33.55,34.218h-9.014c-20.531,0-32.549-10.516-33.551-32.381
		c0-1.502,1.002-2.337,2.337-2.337h3.84c1.335,0,2.337,0.834,2.337,2.337c0.667,16.691,8.179,24.37,25.037,24.37h9.014
		c17.859,0,25.037-7.845,25.037-26.206c0-16.858-13.688-19.529-27.041-23.034l-6.509-1.669c-18.528-4.673-32.549-8.68-32.549-29.878
		C539.459,7.678,552.312,0,573.009,0h5.675c20.364,0,31.548,10.516,32.549,31.881c0,1.502-1.001,2.337-2.337,2.337h-3.839
		c-1.335,0-2.337-0.834-2.337-2.337c-0.668-16.524-7.344-23.869-24.036-23.869h-5.675c-17.192,0-25.037,4.34-25.037,21.699
		c0,17.359,11.017,18.194,23.869,21.532l6.51,1.669C596.544,57.419,614.07,63.261,614.07,84.292z"/>
	<path class="st0" d="M738.085,3.338v111.833c0,1.669-0.835,2.504-2.504,2.504h-3.505c-1.67,0-2.504-0.834-2.504-2.504V64.93
		h-56.084v50.242c0,1.669-0.835,2.504-2.504,2.504h-3.505c-1.669,0-2.504-0.834-2.504-2.504V3.338c0-1.669,0.835-2.504,2.504-2.504
		h3.505c1.669,0,2.504,0.835,2.504,2.504v53.58h56.084V3.338c0-1.669,0.834-2.504,2.504-2.504h3.505
		C737.25,0.834,738.085,1.669,738.085,3.338z"/>
	<path class="st0" d="M869.777,34.719v49.073c0,23.368-12.352,34.718-33.55,34.718h-11.184c-21.365,0-33.55-11.35-33.55-34.718
		V34.719C791.494,11.351,803.679,0,825.044,0h11.184C857.426,0,869.777,11.351,869.777,34.719z M861.265,34.719
		c0-18.528-7.345-26.707-25.037-26.707h-11.184c-17.693,0-25.037,8.179-25.037,26.707v49.073c0,18.527,7.344,26.707,25.037,26.707
		h11.184c17.692,0,25.037-8.179,25.037-26.707V34.719z"/>
	<path class="st0" d="M985.447,3.338v3.004c0,1.669-0.834,2.504-2.503,2.504h-28.877v106.325c0,1.669-0.834,2.504-2.504,2.504
		h-3.505c-1.669,0-2.504-0.834-2.504-2.504V8.847h-29.043c-1.67,0-2.504-0.834-2.504-2.504V3.338c0-1.669,0.834-2.504,2.504-2.504
		h35.052h31.381C984.613,0.834,985.447,1.669,985.447,3.338z"/>
</g>
</svg>